<?xml version="1.0" encoding="UTF-8" standalone="no"?>
<svg
   xmlns:dc="http://purl.org/dc/elements/1.1/"
   xmlns:cc="http://creativecommons.org/ns#"
   xmlns:rdf="http://www.w3.org/1999/02/22-rdf-syntax-ns#"
   xmlns:svg="http://www.w3.org/2000/svg"
   xmlns="http://www.w3.org/2000/svg"
   xmlns:sodipodi="http://sodipodi.sourceforge.net/DTD/sodipodi-0.dtd"
   xmlns:inkscape="http://www.inkscape.org/namespaces/inkscape"
   width="2279.4243"
   height="1054.326"
   viewBox="0 0 175.74909 81.291069"
   version="1.1"
   id="svg3757"
   sodipodi:docname="buck-knives-logo.svg"
   inkscape:version="0.92.4 (5da689c313, 2019-01-14)">
  <metadata
     id="metadata3763">
    <rdf:RDF>
      <cc:Work
         rdf:about="">
        <dc:format>image/svg+xml</dc:format>
        <dc:type
           rdf:resource="http://purl.org/dc/dcmitype/StillImage" />
        <dc:title></dc:title>
      </cc:Work>
    </rdf:RDF>
  </metadata>
  <defs
     id="defs3761" />
  <sodipodi:namedview
     pagecolor="#ffffff"
     bordercolor="#666666"
     borderopacity="1"
     objecttolerance="10"
     gridtolerance="10"
     guidetolerance="10"
     inkscape:pageopacity="0"
     inkscape:pageshadow="2"
     inkscape:window-width="2560"
     inkscape:window-height="1377"
     id="namedview3759"
     showgrid="false"
     fit-margin-top="0"
     fit-margin-left="0"
     fit-margin-right="0"
     fit-margin-bottom="0"
     inkscape:zoom="0.484"
     inkscape:cx="1139.7154"
     inkscape:cy="94.115797"
     inkscape:window-x="-8"
     inkscape:window-y="-8"
     inkscape:window-maximized="1"
     inkscape:current-layer="g3755" />
  <g
     id="g3755"
     style="clip-rule:evenodd;fill-rule:evenodd"
     transform="translate(-8.5032044,-55.729042)">
    <path
       d="m 169.01993,158.66527 h 192.756 v 192.756 h -192.756 z"
       id="path3739"
       inkscape:connector-curvature="0"
       style="fill:#ffffff" />
    <path
       d="m 29.868,81.992 -10e-4,0.082 c -0.186,0.039 -0.514,-0.028 -0.388,-0.293 0.166,-0.06 0.287,0.106 0.389,0.211 z m 3.339,-3.351 c -0.01,0.699 0.374,1.24 0.551,1.859 -0.435,0.18 -1.012,0.274 -1.061,0.851 0.12,0.269 -0.147,0.204 -0.251,0.305 -0.143,-0.063 -0.207,0.101 -0.29,0.161 -0.257,0.717 0.585,0.831 0.931,1.165 -0.214,0.615 -0.954,0.563 -1.345,0.537 -0.178,-2.061 0.381,-3.844 0.347,-5.861 0.665,-0.403 0.246,-1.417 0.807,-1.78 -0.034,0.844 -0.505,2.196 0.311,2.763 z"
       id="path3741"
       inkscape:connector-curvature="0" />
    <path
       d="m 35.312,58.581 -0.006,0.412 C 34.467,58.694 33.5,58.598 32.639,58.38 c -0.08,-0.187 -0.286,-0.107 -0.472,-0.13 -0.355,0.427 -0.383,0.9 -0.204,1.417 0.386,0.375 0.641,1.285 1.489,0.947 l -0.004,0.329 c -0.123,-0.064 -0.187,0.1 -0.27,0.182 -0.507,0.98 1.384,1.13 0.182,1.793 -0.146,0.163 -0.416,0.303 -0.296,0.572 0.632,0.379 1.49,0.864 2.259,0.381 l 10e-4,-0.062 0.103,0.001 c -0.875,0.791 0.19,2.637 -1.561,2.716 -0.792,0.709 -0.299,2.342 -1.842,2.239 -0.294,0.428 -1.012,0.294 -0.939,0.934 0.419,0.994 1.007,1.661 1.198,2.754 l -0.02,1.44 c -0.624,-1.038 -0.21,-2.699 -1.396,-3.25 l -0.193,0.553 c -0.632,-0.4 -0.848,0.277 -1.141,0.643 0.174,0.826 -0.64,1.659 0.154,2.287 0.646,-0.629 0.292,-1.828 1.081,-2.27 0.17,1.114 0.795,2.049 0.51,3.342 -1.949,-0.5 -3.875,-1.082 -5.846,-1.521 -0.149,-1.093 -0.776,-1.925 -0.8,-3.222 -0.877,-0.589 -0.921,-1.907 -2.065,-2.478 -0.227,0.018 -0.389,-0.17 -0.658,-0.091 -0.373,0.139 -0.11,0.554 -0.175,0.821 0.785,1.287 1.239,2.652 2.004,3.917 -0.282,1.025 1.277,1.438 0.749,2.48 0.83,1.02 -0.458,1.846 -0.042,3.025 -0.297,0.675 -0.677,1.308 -0.81,2.047 -0.78,1.348 -1.358,2.986 -3.15,3.106 -0.25,0.223 -0.213,0.553 -0.217,0.841 0.963,0.322 1.853,-0.078 2.661,-0.437 l 0.102,0.083 c -0.704,0.32 -0.448,1.105 -0.967,1.51 -0.293,0.366 -1.14,0.54 -1.066,1.221 1.077,0.982 2.187,-0.341 3.34,-0.407 l 3.151,-3.188 c 0.631,-1 -1.585,-1.442 -0.256,-2.288 0.128,-0.39 0.854,-0.812 1.219,-0.375 0.692,0.544 1.549,1.132 2.178,1.758 0.175,0.785 -0.529,1.063 -0.967,1.489 -0.556,-0.007 -0.979,-0.672 -1.601,-0.31 -1.106,1.096 -2.147,2.029 -2.802,3.193 0.294,1.095 -1.278,0.146 -1.518,1.111 -0.28,0.902 0.041,1.524 0.153,2.37 -0.373,0.159 -0.338,0.612 -0.197,0.841 -1.029,-0.035 -2.246,-1.369 -3.043,-0.227 0.055,0.495 -0.138,1.089 -0.49,1.228 -0.084,0.102 -0.25,0.223 -0.17,0.389 0.08,0.165 0.286,0.168 0.449,0.273 -0.186,0.08 -0.232,0.408 -0.46,0.549 0.137,0.517 0.4,0.808 0.558,1.366 0.864,0.012 1.658,-0.821 2.546,-1.036 -0.355,0.366 -0.144,1.439 -0.213,1.994 l -0.288,-0.004 c -0.788,0.401 -1.437,1.235 -1.529,1.935 a 4.497,4.497 0 0 0 1.704,-1.191 c -0.06,-0.166 0.106,-0.246 0.21,-0.348 0.347,0.231 0.862,0.197 0.647,0.853 0.052,0.701 -0.938,0.832 -1.273,1.279 -1.422,0.166 -0.248,1.602 -0.774,2.418 0.368,0.17 0.281,0.561 0.276,0.869 -0.501,0.549 -0.349,1.457 -1.074,1.775 -0.066,0.328 0.136,0.6 0.362,0.664 -0.3,0.818 0.18,1.855 -0.407,2.648 l -0.004,0.289 c -0.47,-0.295 -0.784,0.072 -1.014,0.377 -0.071,0.637 0.524,0.83 0.786,1.225 1.908,0.459 3.91,0.055 5.886,0.082 1.204,-0.768 2.438,-2.148 2.231,-3.654 -1.064,-1.908 -3.986,-1.99 -4.679,-4.037 1.409,-0.701 3.095,-0.533 4.264,-1.752 l 2.886,-0.332 c 1.301,-1.835 -0.5,-4 0.535,-6.023 0.442,-2.196 0.458,-4.934 0.098,-7.162 0.057,-1.152 1.429,-0.618 1.995,-1.413 l 0.103,-1.522 c 0.257,0.765 0.654,1.82 -0.382,2.382 -0.154,0.759 0.147,1.299 0.447,1.899 0.331,1.384 -0.298,2.24 -0.337,3.577 0.383,0.623 0.498,1.242 1.006,1.722 -0.893,0.523 -0.826,1.656 -1.064,2.538 0.203,0.188 0.486,0.604 0.758,0.278 0.436,-0.261 0.141,-1.295 1.042,-0.912 1.51,0.988 3.081,1.956 4.528,3.004 -0.912,0.502 -1.81,-0.086 -2.588,-0.426 -0.692,-0.544 -1.553,-0.783 -2.225,-1.327 -0.309,0.037 -0.538,0.199 -0.768,0.442 -0.044,0.185 0.016,0.35 0.179,0.476 -0.437,0.364 -1.076,0.438 -1.629,0.245 -0.182,-0.27 -0.483,-0.809 -0.937,-0.753 -0.196,0.779 -0.085,1.748 0.173,2.431 l 0.571,0.379 4.616,-0.391 c 1.12,0.9 4.307,-0.395 3.675,2.129 -0.095,0.986 -1.407,0.537 -2.012,1.166 0.343,-0.982 2.684,-0.559 1.552,-2.139 -0.131,0.594 -0.443,0.797 -0.94,1.016 -0.182,-0.229 -0.557,0.096 -0.696,-0.256 0.004,-0.33 0.094,-0.844 -0.339,-0.787 a 67.103,67.103 0 0 0 -7.708,0.76 c -0.935,0.625 -2.154,0.998 -3.37,1.086 -0.382,-0.645 -1.082,-0.654 -1.619,-0.518 -0.373,0.16 -0.823,0.01 -1.056,0.48 0.761,1.533 2.802,1.293 4.149,2.135 0.767,-0.4 1.409,0.863 2.181,0.031 0.387,0.334 0.189,1.195 0.824,1.43 -0.184,1.398 0.108,2.678 0.689,3.797 0.79,-0.564 1.684,0.332 2.366,0.033 0.259,-0.881 -0.852,-2.42 0.507,-2.443 0.096,0.518 0.544,0.873 0.64,1.408 0.469,0.336 0.826,-0.152 1.138,-0.457 l 0.124,-1.5 c 0.154,0.783 0.413,1.445 1.105,1.99 l 0.263,0.291 c -0.418,0.488 -1.631,0.41 -1.625,1.398 0.694,0.441 1.286,-0.723 2.188,-0.443 0.166,-0.1 0.23,-0.264 0.212,-0.449 l -0.203,-0.209 c 0.623,-0.342 0.919,0.588 1.432,0.678 -0.262,1.107 1.177,1.252 0.894,2.379 0.748,1.061 0.007,2.553 0.34,3.771 0.66,4.414 -0.693,8.574 -0.179,13.088 -0.974,0.502 0.927,1.434 -0.416,1.785 -0.086,0.287 0.262,0.395 0.467,0.48 0.069,0.928 0.279,2.145 -0.246,2.92 -0.527,0.959 1.083,2.094 -0.305,2.732 -0.278,-0.744 0.294,-1.951 -0.627,-2.354 -0.072,-0.701 -0.331,-1.344 -0.341,-2.105 l -0.285,-0.271 c -0.99,0.172 -0.125,1.666 -1.338,1.506 -0.291,0.221 0.033,0.576 0.259,0.662 0.115,0.639 0.324,1.898 -0.606,2.174 -0.004,0.287 -0.338,0.633 -0.075,0.924 0.694,0.441 0.651,-0.959 1.509,-0.453 -0.063,0.145 0.121,0.209 0.182,0.271 -0.504,0.713 -1.483,0.123 -1.987,0.836 -0.723,0.135 -1.529,0.453 -2.287,0.154 -0.258,-0.684 -0.431,-1.611 -1.022,-1.99 -0.685,0.402 -0.265,1.334 -0.377,1.973 a 44.222,44.222 0 0 1 -6.173,-0.086 c -1.182,-0.881 -3.143,-0.516 -3.841,-2.131 -0.402,-0.727 0.107,-1.811 -0.729,-2.377 -0.129,-1.051 0.361,-2.342 -0.41,-3.113 -0.261,-4.965 0.658,-10.488 0.564,-15.717 -0.147,-1.279 -0.315,-2.557 -0.876,-3.697 -1.668,0.121 -0.814,2.377 -1.181,3.586 -0.518,1.764 -1.019,3.732 -1.333,5.643 -0.108,3.414 0.069,6.957 -0.325,10.203 -0.502,0.57 -1.457,1.154 -0.956,2.189 0.543,0.914 1.173,1.52 0.889,2.75 -1.979,0.262 -4.515,0.494 -5.744,-1.395 -0.503,-0.83 0.297,-2.158 -0.64,-2.85 l -0.279,-0.662 c 0.344,-4.092 0.263,-8.684 0.775,-13.039 0.119,-1.213 0.547,-2.381 0.419,-3.598 0.518,-0.26 -0.178,-0.496 0.012,-0.844 0.098,-1.109 -0.203,-1.73 0.324,-2.65 0.077,-4.115 0.107,-7.82 -0.417,-11.635 -0.345,-3.401 1.178,-6.364 0.71,-9.829 C 13.751,86.498 11.778,86.286 10.033,85.892 9.255,85.614 9.783,84.612 9.107,84.356 8.1,82.826 8.466,80.155 9.374,78.48 9.524,78.029 9.449,77.472 9.866,77.149 10.412,74.851 12.001,73 12.507,70.66 c 1.448,-2.059 3.053,-5 6.143,-5.185 1.801,-0.737 3.878,-0.627 5.341,-2.233 0.432,0.047 0.987,0.076 1.138,-0.437 0.121,-2.798 1.978,-4.625 3.957,-6.389 1.064,-1.056 2.829,-0.702 4.078,-0.212 0.856,0.568 1.666,1.588 2.148,2.377 z m 138.342,75.12 h 0.598 l 0.246,-0.699 h -0.576 z m 0.619,-1.275 h 0.329 l 0.843,-1.955 0.557,-1.524 h -0.617 l -0.475,1.36 z m -1.853,0.617 -0.453,-0.186 c -0.453,0.434 -1.008,0.639 -1.688,0.639 -0.945,0 -1.543,-0.412 -1.543,-1.049 0,-0.084 0.02,-0.186 0.041,-0.33 h 4.115 c 0.021,-0.123 0.043,-0.246 0.043,-0.371 0,-0.926 -0.803,-1.48 -1.977,-1.48 -0.865,0 -1.668,0.328 -2.223,0.904 -0.371,0.391 -0.555,0.803 -0.555,1.215 0,0.863 0.822,1.42 2.078,1.42 0.887,0 1.586,-0.246 2.162,-0.762 z m -10.373,1.318 c 0.557,0.35 1.193,0.555 1.854,0.555 0.781,0 1.461,-0.246 1.975,-0.699 0.35,-0.33 0.557,-0.803 0.803,-1.461 l 0.74,-2.08 h 0.723 l 0.123,-0.309 h -1.277 l -0.205,0.494 c -0.473,-0.391 -1.07,-0.576 -1.75,-0.576 -0.803,0 -1.564,0.289 -2.037,0.783 -0.33,0.369 -0.516,0.781 -0.516,1.193 0,0.844 0.762,1.379 1.873,1.379 0.557,0 1.07,-0.145 1.586,-0.434 -0.309,0.887 -1.051,1.379 -1.977,1.379 -0.576,0 -1.07,-0.164 -1.605,-0.492 z m -1.379,-0.968 1.586,-4.445 h -1.297 l -0.104,0.309 h 0.721 l -0.576,1.646 a 2.73,2.73 0 0 0 -1.77,-0.617 c -0.803,0 -1.545,0.289 -2.018,0.824 -0.35,0.391 -0.535,0.803 -0.535,1.234 0,0.885 0.762,1.439 1.893,1.439 0.535,0 1.051,-0.143 1.545,-0.451 l -0.125,0.369 h 1.297 l 0.104,-0.309 h -0.721 z m -5.227,-0.35 -0.453,-0.186 c -0.453,0.434 -1.01,0.639 -1.688,0.639 -0.926,0 -1.523,-0.412 -1.523,-1.051 0,-0.082 0,-0.184 0.021,-0.328 h 4.115 c 0.021,-0.123 0.041,-0.248 0.041,-0.371 0,-0.926 -0.781,-1.48 -1.977,-1.48 -0.863,0 -1.645,0.328 -2.201,0.904 -0.371,0.391 -0.555,0.803 -0.555,1.215 0,0.863 0.803,1.42 2.078,1.42 0.865,0 1.566,-0.246 2.142,-0.762 z m -11.896,0.35 h -0.721 l -0.123,0.309 h 2.018 l 0.123,-0.309 h -0.74 l 0.801,-2.264 c 0.701,-0.35 1.215,-0.555 1.668,-0.555 0.473,0 0.762,0.184 0.762,0.473 0,0.082 -0.041,0.205 -0.104,0.369 l -0.699,1.977 h -0.74 l -0.104,0.309 h 2.018 l 0.102,-0.309 h -0.74 l 0.68,-1.914 c 0.061,-0.186 0.102,-0.328 0.102,-0.453 0,-0.451 -0.432,-0.74 -1.152,-0.74 -0.514,0 -1.049,0.164 -1.688,0.473 l 0.186,-0.391 h -1.297 l -0.123,0.309 h 0.74 z m -2.326,-0.104 -0.143,0.412 h 1.275 l 0.123,-0.309 h -0.74 l 0.658,-1.832 c 0.062,-0.186 0.104,-0.328 0.104,-0.432 0,-0.494 -0.639,-0.865 -1.627,-0.865 -0.781,0 -1.398,0.248 -1.955,0.742 l 0.432,0.164 a 2.142,2.142 0 0 1 1.482,-0.576 c 0.699,0 1.111,0.227 1.111,0.576 0,0.082 -0.041,0.205 -0.104,0.35 l -0.164,0.453 c -0.617,-0.164 -1.152,-0.246 -1.605,-0.246 -1.193,0 -1.996,0.492 -1.996,1.152 0,0.514 0.617,0.926 1.42,0.926 0.557,0.001 1.092,-0.185 1.729,-0.515 z m -11.545,1.07 c 0.555,0.35 1.193,0.557 1.852,0.557 0.803,0 1.461,-0.248 1.977,-0.699 0.35,-0.33 0.576,-0.803 0.803,-1.463 l 0.74,-2.078 h 0.742 l 0.102,-0.309 h -1.275 l -0.186,0.494 c -0.494,-0.391 -1.07,-0.576 -1.77,-0.576 -0.783,0 -1.545,0.287 -2.018,0.781 -0.35,0.371 -0.535,0.783 -0.535,1.193 0,0.844 0.762,1.379 1.895,1.379 0.535,0 1.049,-0.143 1.584,-0.432 -0.309,0.885 -1.07,1.379 -1.996,1.379 -0.557,0 -1.07,-0.164 -1.605,-0.494 z m -4.838,-0.966 h -0.719 l -0.104,0.309 h 2.018 l 0.102,-0.309 h -0.74 l 0.824,-2.264 c 0.678,-0.35 1.193,-0.557 1.646,-0.557 0.473,0 0.76,0.186 0.76,0.475 0,0.082 -0.041,0.205 -0.102,0.369 l -0.701,1.977 h -0.719 l -0.125,0.309 h 2.018 l 0.123,-0.309 h -0.762 l 0.701,-1.914 c 0.061,-0.186 0.102,-0.33 0.102,-0.453 0,-0.453 -0.451,-0.74 -1.152,-0.74 -0.535,0 -1.07,0.164 -1.707,0.473 l 0.186,-0.391 h -1.297 l -0.104,0.309 h 0.721 z m -1.049,-4.26 c 0,0.143 0.164,0.246 0.371,0.246 0.205,0 0.391,-0.104 0.391,-0.246 0,-0.166 -0.164,-0.268 -0.391,-0.268 -0.207,0 -0.371,0.102 -0.371,0.268 z m -2.201,4.568 h 2.037 l 0.104,-0.308 h -0.721 l 1.07,-3.026 h -1.297 l -0.103,0.309 h 0.72 l -0.966,2.717 h -0.721 z m -1.07,-0.308 1.584,-4.445 h -1.297 l -0.104,0.309 h 0.721 l -0.576,1.646 a 2.706,2.706 0 0 0 -1.748,-0.617 c -0.824,0 -1.564,0.287 -2.039,0.822 -0.35,0.391 -0.535,0.803 -0.535,1.234 0,0.887 0.762,1.441 1.895,1.441 0.555,0 1.049,-0.145 1.564,-0.453 l -0.145,0.371 h 1.297 l 0.104,-0.309 h -0.721 z m -4.838,-4.137 -1.481,4.137 h -0.72 l -0.104,0.308 h 2.018 l 0.123,-0.308 h -0.741 l 1.584,-4.446 h -1.296 l -0.102,0.309 z m -6.955,3.148 c 0,0.844 0.803,1.4 1.996,1.4 0.844,0 1.666,-0.33 2.223,-0.926 0.35,-0.393 0.514,-0.805 0.514,-1.195 0,-0.844 -0.803,-1.42 -1.955,-1.42 -0.863,0 -1.646,0.309 -2.201,0.885 -0.372,0.391 -0.577,0.825 -0.577,1.256 z m -3.643,-1.668 0.637,-1.789 h -1.297 l -0.102,0.309 h 0.721 l -1.463,4.137 h -0.74 l -0.104,0.309 h 2.018 l 0.104,-0.309 h -0.721 l 0.803,-2.264 c 0.699,-0.352 1.213,-0.557 1.666,-0.557 0.475,0 0.742,0.186 0.742,0.475 0,0.082 -0.021,0.205 -0.082,0.369 l -0.701,1.977 h -0.721 l -0.123,0.309 h 2.018 l 0.104,-0.309 h -0.742 l 0.701,-1.914 c 0.061,-0.186 0.102,-0.33 0.102,-0.453 0,-0.453 -0.453,-0.74 -1.172,-0.74 -0.517,-0.001 -1.052,0.142 -1.648,0.45 z m -3.932,-0.019 0.145,-0.35 h -0.309 c -1.029,0 -1.812,0.287 -2.49,0.926 l 0.328,-0.926 h -1.256 l -0.123,0.309 h 0.721 l -0.947,2.717 h -0.741 l -0.103,0.309 h 2.181 l 0.123,-0.309 h -0.904 l 0.246,-0.742 c 0.453,-1.295 1.379,-1.934 2.881,-1.934 z m -9.488,1.687 c 0,0.844 0.803,1.4 1.997,1.4 0.823,0 1.646,-0.33 2.182,-0.928 0.37,-0.391 0.535,-0.803 0.535,-1.193 0,-0.844 -0.803,-1.42 -1.955,-1.42 -0.844,0 -1.646,0.309 -2.182,0.885 -0.391,0.391 -0.577,0.825 -0.577,1.256 z m -2.469,0.989 H 88.45 l -0.103,0.309 h 2.037 l 0.103,-0.309 h -0.741 l 0.967,-2.717 h 0.761 l 0.103,-0.309 h -0.741 l 0.144,-0.434 c 0.185,-0.492 0.473,-0.74 1.029,-0.74 0.144,0 0.288,0.021 0.474,0.062 l 0.186,-0.268 a 2.285,2.285 0 0 0 -0.762,-0.123 c -0.7,0 -1.235,0.35 -1.461,1.027 l -0.186,0.475 h -0.782 l -0.124,0.309 h 0.802 z m -7.574,0.308 h 0.474 l 0.124,-0.371 c 0.288,0.309 0.802,0.473 1.482,0.473 1.049,0 1.811,-0.473 1.811,-1.049 0,-0.412 -0.33,-0.639 -1.029,-0.865 l -0.7,-0.246 c -0.453,-0.145 -0.7,-0.268 -0.7,-0.494 0,-0.309 0.432,-0.555 1.091,-0.555 0.7,0 1.194,0.268 1.255,0.719 h 0.494 l 0.35,-0.945 h -0.494 l -0.124,0.35 c -0.35,-0.289 -0.885,-0.453 -1.482,-0.453 -0.967,0 -1.646,0.412 -1.646,0.885 0,0.371 0.309,0.576 0.926,0.781 l 0.659,0.227 c 0.576,0.207 0.865,0.33 0.865,0.639 0,0.371 -0.515,0.68 -1.235,0.68 -0.7,0 -1.173,-0.248 -1.297,-0.721 h -0.473 z m -1.914,-0.371 -0.144,0.371 h 1.276 l 0.124,-0.309 h -0.72 l 1.07,-3.025 h -1.296 l -0.103,0.309 h 0.721 l -0.803,2.264 c -0.7,0.369 -1.235,0.576 -1.667,0.576 -0.473,0 -0.741,-0.186 -0.741,-0.475 0,-0.123 0.041,-0.246 0.082,-0.391 l 0.824,-2.283 H 77.05 l -0.124,0.309 h 0.741 l -0.7,1.934 c -0.062,0.186 -0.082,0.33 -0.082,0.453 0,0.453 0.433,0.74 1.152,0.74 0.513,0 1.048,-0.164 1.666,-0.473 z m -8.459,-0.926 c 0,0.844 0.803,1.398 1.997,1.398 0.844,0 1.688,-0.328 2.223,-0.926 0.35,-0.391 0.535,-0.803 0.535,-1.193 0,-0.844 -0.823,-1.42 -1.976,-1.42 -0.864,0 -1.646,0.309 -2.202,0.885 -0.371,0.391 -0.577,0.823 -0.577,1.256 z m -4.589,0.987 0.782,-2.264 c 0.659,-0.35 1.153,-0.555 1.585,-0.555 0.432,0 0.72,0.186 0.72,0.453 0,0.143 -0.041,0.268 -0.082,0.391 l -0.7,1.977 -0.72,-0.002 -0.124,0.311 h 1.997 l 0.124,-0.309 h -0.721 l 0.679,-1.914 c 0.042,-0.166 0.083,-0.311 0.083,-0.453 0,-0.475 -0.412,-0.742 -1.111,-0.742 -0.535,0 -1.091,0.186 -1.77,0.535 -0.124,-0.35 -0.494,-0.535 -1.091,-0.535 -0.494,0 -1.029,0.166 -1.585,0.475 l 0.145,-0.393 H 63.59 l -0.124,0.311 h 0.741 l -0.967,2.715 h -0.741 l -0.103,0.311 h 2.017 l 0.103,-0.311 h -0.721 l 0.803,-2.264 c 0.658,-0.35 1.152,-0.555 1.564,-0.555 0.453,0 0.72,0.186 0.72,0.453 0,0.143 -0.021,0.268 -0.062,0.391 l -0.7,1.975 h -0.741 l -0.103,0.311 h 1.996 l 0.124,-0.311 h -0.741 z m -5.763,-0.102 -0.145,0.412 h 1.276 l 0.124,-0.311 h -0.721 l 0.638,-1.83 c 0.062,-0.186 0.103,-0.33 0.103,-0.434 0,-0.494 -0.638,-0.863 -1.626,-0.863 -0.782,0 -1.399,0.246 -1.955,0.74 l 0.432,0.164 c 0.453,-0.391 0.926,-0.576 1.502,-0.576 0.679,0 1.091,0.227 1.091,0.576 0,0.084 -0.042,0.207 -0.083,0.352 l -0.165,0.451 c -0.638,-0.164 -1.173,-0.246 -1.605,-0.246 -1.194,0 -2.017,0.494 -2.017,1.152 0,0.514 0.618,0.926 1.42,0.926 0.558,0.001 1.093,-0.185 1.731,-0.513 z m -7.245,0.102 h -0.74 l -0.124,0.308 2.14,0.002 0.124,-0.31 h -0.803 l 0.741,-2.079 h 2.367 l 0.103,-0.328 h -2.367 l 0.638,-1.73 h 2.943 l -0.432,1.154 h 0.514 l 0.515,-1.463 h -4.775 l -0.103,0.309 h 0.721 z M 184.252,62.94 a 4.269,4.269 0 0 0 -4.201,-4.318 c -2.367,-0.033 -4.307,1.855 -4.34,4.201 a 4.278,4.278 0 0 0 4.223,4.339 c 2.345,0.012 4.287,-1.855 4.318,-4.222 z M 61.401,98.518 61.391,99.28 c -1.147,1.137 -3.297,1.766 -2.729,3.936 l -0.294,0.387 c 0.143,1.627 -0.021,3.066 0.432,4.596 2.475,-1.881 4.114,-4.369 6.388,-6.541 0.371,-1.537 -2.918,-1.83 -0.802,-3.098 0.492,0.109 1.114,-0.191 1.416,0.287 1.511,-0.598 3.264,0.641 4.491,-0.289 1.007,0.096 2.334,-0.586 3.062,0.309 l -0.005,0.371 c -0.878,1.018 -2.182,1.494 -3.02,2.572 -1.196,0.211 -1.711,1.727 -2.904,1.648 -0.476,0.199 -0.668,0.711 -0.594,1.289 -1.021,0.871 -2.067,2.174 -2.844,3.213 0.163,1.67 2.731,2.014 2.212,3.859 1.105,0.467 1.876,1.281 2.771,2.096 0.335,1.115 1.648,1.381 2.189,2.438 0.762,1.473 2.165,2.748 3.869,3.037 l -0.014,1.029 c -1.671,0.287 -3.604,0.178 -5.141,-0.338 -0.989,0.027 -2.335,0.668 -3.146,-0.248 -0.625,0.547 -1.162,0.664 -1.961,0.447 -0.185,-0.064 -0.057,-0.393 -0.095,-0.578 0.394,-0.242 1.018,-0.707 0.76,-1.369 -1.354,-1.83 -3.076,-3.891 -4.865,-5.479 -0.341,-0.664 -0.848,-1.186 -1.544,-1.504 -1.077,0.5 0.134,2.246 -1.065,2.662 0.055,0.514 0.217,0.682 0.542,1.057 0.354,1.156 -0.493,2.916 0.961,3.449 0.677,0.195 1.457,0.391 1.652,1.135 -0.027,0.494 -0.381,0.838 -0.836,0.936 -3.375,-0.047 -6.291,-0.518 -9.487,-0.129 -0.573,-0.234 -0.134,-0.764 0.014,-1.029 0.531,-1.188 2.427,0.135 2.368,-1.533 0.766,-0.318 0.098,-1.129 0.188,-1.686 -0.033,-0.596 0.898,-0.996 0.289,-1.58 -0.101,-3.213 0.03,-6.709 0.055,-10.064 0.415,-0.24 0.442,-0.756 0.303,-1.107 -0.547,-0.625 -0.909,-1.287 -0.732,-2.15 -0.438,-1.035 -1.523,-1.461 -2.487,-1.721 -0.326,-0.252 -0.114,-0.682 -0.151,-1.031 1.165,-0.869 1.967,0.645 3.232,-0.039 0.494,0.008 1.025,0.344 1.501,0.104 0.92,-1.059 2.555,-0.191 3.833,-0.318 0.721,-0.16 1.543,-0.003 2.198,0.212 z m 37.728,0.084 c 0.512,0.088 1.361,-0.229 1.496,0.451 -0.258,0.82 -1.373,0.99 -1.732,1.748 0.08,1.646 -0.125,3.168 -0.617,4.561 0.586,0.811 -0.092,2.076 0.516,2.889 -0.568,3.924 0.219,8.07 -0.533,11.91 -0.688,0.629 -1.822,0.777 -2.786,0.537 -0.73,-0.771 -1.417,-1.748 -2.378,-2.172 -0.241,-0.416 -0.731,-0.711 -1.183,-0.861 -0.314,-1.053 -1.211,-1.684 -1.362,-2.734 -2.374,-1 -3.188,-3.193 -5.056,-5.092 0.128,-0.348 -0.092,-0.764 -0.442,-0.768 -0.967,-0.014 -1.242,-1.025 -1.851,-1.568 -0.121,-0.27 -0.342,-0.582 -0.651,-0.586 -1.071,1.592 0.465,3.65 -0.729,5.219 -0.235,0.594 0.382,0.664 0.562,1.016 0.478,1.18 -0.201,2.633 0.134,3.748 -0.385,1.045 0.745,1.203 1.171,1.684 0.817,0.422 2.423,0.402 2.304,1.596 -1.079,0.645 -2.79,0.785 -3.892,0.07 -0.492,-0.172 -0.456,0.221 -0.848,0.338 l -4.651,-0.062 c -0.085,-1.318 2.111,-0.816 1.885,-2.404 1.469,-0.557 -0.608,-2.189 0.883,-2.848 l -0.483,-0.77 0.13,-9.508 c 0.354,-0.324 0.463,-0.754 0.51,-1.186 -1.123,-0.633 -0.401,-2.229 -1.359,-2.922 -0.233,-1.031 -2.889,-0.965 -1.266,-2.24 1.208,0.408 2.537,-0.396 3.699,0.4 1.287,-0.764 3.174,-0.326 4.676,-0.285 0.073,0.68 -0.097,1.049 -0.29,1.684 0.461,0.871 1.254,1.602 1.445,2.633 0.011,0.742 0.855,0.672 1.283,1.027 1.395,1.83 3.37,3.381 4.392,5.453 0.106,1.256 1.862,0.828 1.927,2.084 0.407,0.314 0.484,0.748 0.997,0.857 1.246,-0.826 -0.444,-2.168 0.781,-2.953 0.014,-1.029 -0.783,-1.473 -0.603,-2.561 0.055,-1.008 0.362,-2.383 -0.244,-3.275 -0.091,-0.846 -0.079,-1.771 -0.314,-2.598 -0.811,-0.877 -1.839,-0.994 -2.669,-1.992 0.136,-0.883 1.401,-0.125 1.963,-0.592 1.941,-0.55 3.421,1.138 5.185,0.072 z m 11.812,0.16 c 0.557,1.346 -1.898,1.766 -1.16,3.504 -0.484,0.734 -0.297,2.137 -0.227,2.982 -0.303,1.107 0.588,2.293 -0.127,3.332 -0.088,1.871 0.426,3.484 0.193,5.416 -0.809,0.504 -0.082,1.48 -0.133,2.221 0.146,1.32 0.625,2.438 1.83,3.113 -0.027,0.555 0.127,1.318 -0.674,1.184 -1.965,-0.809 -3.902,0.771 -5.76,-0.346 -0.758,-0.195 -1.617,0.904 -2.078,-0.029 -0.014,-0.514 0.277,-0.736 0.693,-1.02 1.455,0.473 0.861,-1.223 1.609,-1.748 -0.119,-0.434 -0.461,-0.932 -0.166,-1.4 0.188,-0.205 0.701,-0.197 0.562,-0.631 0.006,-0.391 -0.277,-0.684 -0.541,-0.934 0.094,-0.945 -0.24,-2.062 0.305,-2.795 -0.076,-0.393 0.24,-0.965 -0.25,-1.219 l 0.07,-5.205 c 0.111,-0.576 0.916,-0.709 0.656,-1.33 -1.598,-0.516 -0.252,-2.576 -1.436,-3.457 -0.549,-0.42 -1.529,-0.967 -1.293,-1.664 0.895,-0.729 1.717,0.805 2.715,0.037 0.824,0.012 1.744,0.498 2.33,-0.318 0.97,0.074 2.107,-0.238 2.882,0.307 z m 21.897,0.176 c 0.686,-0.402 1.379,0.102 1.963,-0.488 0.764,-0.133 0.979,0.611 0.746,1.184 -0.557,1.496 -1.639,2.428 -2.053,4.09 -0.504,0.713 -0.514,1.352 -1.383,1.73 -0.197,0.82 -0.062,1.604 -0.506,2.381 a 4.049,4.049 0 0 0 -1.062,2.434 c -0.508,0.961 -0.971,1.695 -1.252,2.783 -0.4,0.652 -1.211,1.26 -1.061,2.207 -0.395,0.264 -0.215,0.779 -0.365,1.148 -0.986,1.447 -1.562,2.984 -2.404,4.311 -0.459,0.385 -1.1,0.602 -1.693,0.367 -1.162,-0.756 -0.979,-2.215 -1.895,-2.928 -0.076,-0.516 0.225,-1.355 -0.475,-1.488 -0.344,-0.416 -0.395,-1.117 -0.967,-1.516 -0.256,-0.785 -0.883,-1.617 -1.016,-2.504 0.662,-1.783 -1.783,-2.084 -1.43,-3.766 0.961,-1.018 -0.988,-1.537 -0.416,-2.723 -1.744,-0.354 -0.812,-2.297 -2.016,-3.074 -0.896,-0.713 0.053,-2.367 -1.469,-2.553 -0.551,-0.398 -0.914,-0.877 -0.738,-1.656 0.479,-0.344 1.158,-0.457 1.691,-0.266 0.465,0.645 1.131,0.016 1.688,-0.037 1.061,0.775 2.352,-0.34 3.352,0.312 0.719,0.092 1.775,-0.428 2.137,0.277 -0.344,1.045 -2.283,1.367 -1.461,2.943 0.18,0.414 0.605,0.852 0.557,1.447 0.83,1.062 1.078,2.486 0.791,3.902 l 1.283,1.025 c 0.178,1.998 1.311,3.414 1.885,5.172 l 0.182,0.188 c 0.148,-0.246 0.5,-0.404 0.381,-0.756 0.916,-0.688 0.914,-2.129 1.545,-3.107 1.57,-0.473 0.051,-2.223 1.338,-2.967 0.346,-1.168 0.977,-2.209 0.893,-3.549 0.359,-0.777 0.885,-1.512 0.691,-2.502 -0.211,-1.031 -1.859,-0.992 -1.471,-2.223 l 0.58,-0.361 c 1.067,0.324 2.578,-0.293 3.43,0.563 z m 21.332,-0.594 c 0.303,0.436 0.213,1.094 0.104,1.545 -0.332,0.1 -0.191,0.41 -0.215,0.656 0.299,0.662 0.143,1.504 0.424,2.146 0.094,0.639 -0.1,1.191 -0.395,1.682 -0.785,0.318 -1.582,-0.186 -2.049,-0.727 -0.502,-0.852 -1.021,-1.971 -2.172,-2.15 -1.791,0.016 -3.965,-0.65 -5.523,0.5 -0.068,0.473 -0.592,1.125 -0.021,1.545 -0.096,1.027 0.217,2.184 -0.309,2.98 -0.129,0.512 0.299,0.703 0.523,0.973 0.717,0.217 1.355,0.164 1.977,-0.178 1.324,-0.436 1.5,-2.779 3.203,-2.365 0.023,1.297 0.172,2.514 0.484,3.732 -0.209,0.143 -0.334,0.367 -0.277,0.635 -0.271,0.326 -0.67,0.896 -0.389,1.395 0.859,0.402 -0.098,1.109 0.078,1.771 -0.434,0.096 -1.115,0.293 -1.396,-0.205 0.145,-1.521 -1.541,-1.646 -2.502,-2.174 -0.762,0.07 -1.396,-0.225 -1.879,0.447 0.07,0.824 0.303,1.959 -0.182,2.693 -0.338,0.736 0.541,1.1 0.121,1.771 0.32,0.623 -0.336,1.992 0.543,2.334 1.502,0.123 3.133,-0.205 4.379,0.512 0.973,-0.521 1.586,-1.625 2.822,-1.711 0.973,-0.459 1.182,-2.207 2.436,-2.107 0.215,0.848 0.393,1.426 0.176,2.33 -0.35,1.496 0.828,4.168 -1.459,4.26 -1.668,0.08 -3.193,-1.277 -4.77,-0.332 -0.912,0.42 -1.658,-0.703 -2.512,0.049 -2.242,-0.094 -4.387,0.062 -6.609,0.094 -0.389,-0.189 -0.439,-1.014 -1.021,-0.568 -0.127,0.244 -0.42,0.631 -0.75,0.646 -0.285,-0.168 -1.07,-0.014 -0.834,-0.67 0.006,-0.494 0.439,-0.631 0.754,-1.018 0.531,0.273 1.137,-0.334 1.35,-0.805 -0.057,-0.352 0.152,-0.637 0.463,-0.756 -0.131,-1.01 0.23,-1.768 0.307,-2.795 -0.32,-0.684 -0.494,-1.551 -0.545,-2.416 -0.188,-1.279 0.422,-2.176 0.621,-3.264 l -0.182,-0.168 c -0.021,-1.523 -0.344,-3.523 0.375,-4.955 -0.213,-0.908 -1.227,-2.055 -0.166,-2.883 -0.133,-0.805 -1.799,-0.85 -1.371,-2.057 1.203,-0.766 3.236,-0.389 4.568,0.062 0.533,0.191 0.828,-0.318 1.301,-0.332 3.049,-0.082 6.561,0.377 9.492,-0.221 0.414,-0.136 0.615,0.175 1.027,0.099 z m 13.992,0.377 c 1.006,0.178 1.732,-0.326 2.799,-0.064 0.617,0.131 1.105,0.529 1.869,0.375 0.482,-0.715 1.426,-0.475 2.209,-0.484 0.654,0.215 0.256,0.889 0.373,1.344 -0.523,0.65 -0.232,1.951 -0.328,2.896 0.484,0.707 -0.143,1.398 -0.215,2.139 -0.867,0.131 -1.725,-0.25 -2.438,-0.795 -0.367,-0.293 -0.299,-0.787 -0.416,-1.199 -1.506,-1.318 -3.352,-1.775 -5.303,-2.07 -0.998,0.666 -2.4,0.914 -2.83,2.143 -0.645,1.969 1.41,2.326 2.301,3.471 1.885,0.602 3.928,1.721 5.143,3.137 1.586,-0.061 2.592,1.641 3.527,2.559 -0.01,0.721 0.291,1.197 0.822,1.514 0,1.502 -0.555,2.977 -1.738,3.701 0.43,1.695 -1.484,1.668 -2.156,2.668 -1.115,0.334 -2.182,-0.01 -3.199,0.615 -1.693,0.43 -4.395,0.783 -5.777,-0.449 -0.207,0.078 -0.494,-0.008 -0.643,0.279 -1.381,0.207 -2.73,-0.449 -4.086,-0.715 -0.094,-0.619 0.242,-1.066 -0.268,-1.486 l 0.059,-4.279 c 0.479,-0.344 1.059,-0.584 1.611,-0.473 1.027,1.641 2.256,3.674 3.953,4.521 0.84,0.299 1.742,0.434 2.582,0.797 1.322,-0.395 2.811,-0.848 3.264,-2.365 0.498,-1.824 -1.131,-3.041 -2.455,-4.047 -1.109,-0.18 -1.797,-1.094 -2.57,-1.723 -0.91,0.379 -1.869,-0.252 -2.688,-0.613 -1.064,-0.447 -2.785,-1.088 -2.662,-2.629 -0.301,-0.498 -0.938,-0.549 -1.012,-1.229 -0.252,-1.197 0.135,-2.324 0.131,-3.518 0.994,-0.398 0.354,-1.725 1.342,-1.855 0.387,-1.209 2.092,-0.918 2.621,-2.002 1.944,-0.614 4.256,-1.076 6.178,-0.164 z M 75.719,61.396 c 0.521,1.016 1.888,1.899 1.373,3.477 0.976,0.918 -0.849,1.882 0.416,2.723 -0.088,0.451 -0.363,0.983 -0.392,1.559 -1.05,1.55 -2.834,2.575 -4.434,3.665 -0.007,0.515 0.631,0.503 0.916,0.753 1.15,0.18 2.458,0.836 2.751,1.972 0.752,0.689 1.627,1.463 1.406,2.571 -0.302,1.046 0.839,1.864 0.024,2.779 0.063,1.359 -0.892,2.026 -0.869,3.343 -0.51,1.187 -1.612,2.016 -2.387,2.952 -0.915,0.646 -2.225,0.155 -2.979,1.071 -0.636,-0.173 -1.56,-0.351 -1.796,0.428 -0.372,0.057 -0.658,-0.07 -0.922,-0.28 -2.996,0.803 -6.967,0.749 -9.96,-0.136 -1.955,-0.047 -3.833,0.359 -5.685,0.313 -0.017,-0.268 -0.158,-0.476 -0.361,-0.663 -0.99,0.171 -1.604,1.336 -2.705,0.621 -0.675,-1.8 1.799,-2.116 2.535,-3.238 0.486,-0.878 0.643,-1.864 1.272,-2.679 a 1.2,1.2 0 0 0 -0.646,-0.956 l 0.17,-12.45 c 0.396,-0.386 0.467,-1.023 0.288,-1.499 -1.451,-0.761 0.167,-1.686 -0.601,-2.726 -0.42,-0.891 0.649,-2.316 -0.888,-2.811 l -1.594,-0.866 c 0.049,-0.617 -0.587,-2.251 0.788,-1.924 3.96,-0.625 8.224,0.668 12.208,-0.204 4.208,0.843 8.885,-1.008 12.072,2.205 z m 34.193,-1.858 c 0.828,-0.379 1.988,-0.857 2.865,-0.249 0.582,0.996 -0.592,1.062 -0.949,1.593 -0.828,0.421 -2.09,0.774 -2.27,1.924 -0.123,-0.063 -0.186,0.08 -0.27,0.162 -0.459,1.928 0.064,4.261 -0.557,6.167 -0.369,4.317 0.506,8.158 0.117,12.454 -0.52,0.323 -0.199,1.006 -0.309,1.499 -0.584,0.548 -1.213,1.445 -1.227,2.412 -2.84,4.51 -8.586,1.756 -12.705,3.346 -0.821,-0.176 -1.715,-1.031 -2.589,-0.303 -0.667,0.588 -1.106,-0.345 -1.766,-0.292 -1.812,0.12 -3.133,-1.196 -4.312,-2.323 -0.362,-0.623 0.792,-0.73 0.288,-1.479 -0.233,-1.032 -1.659,-0.619 -1.686,-1.69 0.134,-0.739 -0.126,-1.319 -0.406,-1.858 -0.289,-1.486 0.655,-2.791 -0.254,-4.018 l 0.083,-6.07 c 0.274,-0.552 1.021,-0.954 0.765,-1.76 -1.202,-0.901 0.935,-2.148 -0.703,-2.788 -0.551,-1.86 0.769,-5.012 -2.15,-5.34 -0.3,-0.643 -1.66,-0.579 -1.276,-1.5 0.705,-0.423 1.671,-0.286 2.517,-0.439 0.429,0.212 0.998,0.755 1.499,0.289 1.202,-0.622 2.303,0.155 3.625,-0.219 1.195,-0.127 2.316,0.732 3.437,0.047 l 3.54,0.049 c 0.079,0.248 0.365,0.417 0.257,0.745 -0.835,0.874 -2.183,0.073 -2.714,1.362 -0.072,0.72 -0.959,0.831 -1.053,1.674 -0.091,0.616 0.228,1.403 -0.293,1.869 -0.336,2.033 0.696,4.805 -1.011,6.202 -0.385,1.065 0.621,1.265 0.608,2.149 -0.08,1.378 0.554,3.136 -0.223,4.278 0.438,1.035 -0.7,1.513 -0.302,2.527 0.255,0.889 1.389,0.801 1.084,1.97 1.087,3.309 4.917,3.175 7.874,3.668 2.205,-0.073 3.898,-2.005 5.193,-3.408 1.158,-1.98 -0.166,-4.427 0.643,-6.413 -0.246,-1.505 0.613,-2.708 0.057,-4.095 -0.555,-1.552 0.105,-3.23 -0.49,-4.762 -0.393,-1.446 0.957,-3.815 -0.947,-4.479 -1.293,-0.347 -2.621,-1.086 -3.428,-2.188 -0.057,-0.495 0.297,-0.778 0.57,-1.125 1.967,0.624 3.424,-0.612 5.396,-0.276 1.3,-0.083 2.103,1.513 3.472,0.688 z m 63.459,-0.163 c 0.965,1.742 -1.463,1.708 -2.115,2.688 -1.42,1.442 -3.164,2.612 -4.605,4.198 -0.619,0.032 -1.439,-0.185 -1.676,0.533 -0.24,2.508 -2.449,3.075 -3.629,5.076 -0.434,1.559 1.117,2.547 2.195,3.508 1.021,0.508 -0.305,2.671 1.449,2.428 0.826,1.164 2.611,1.682 2.941,3.024 2.816,1.768 3.572,5.215 6.889,6.619 0.428,0.294 0.236,0.785 0.271,1.197 -1.285,0.58 -2.984,0.042 -4.467,0.042 -1.469,-1.008 -3.293,-0.127 -4.959,-0.17 -0.637,-0.05 -0.5,-1.057 -1.289,-0.553 -0.314,0.448 -0.463,0.693 -1.02,0.809 -0.535,-0.028 -1.027,-0.096 -1.393,-0.492 -0.027,-0.968 1.518,-1.091 1.242,-2.021 -1.543,-1.523 -2.42,-3.717 -4.131,-4.996 -0.742,-1.451 -2.463,-1.989 -3.143,-3.501 -0.385,-0.438 -0.912,-1.021 -1.654,-0.949 -1.082,0.911 0.268,2.947 -1.244,3.605 -0.066,0.432 0.262,0.559 0.547,0.769 0.973,1.146 -0.107,3.333 0.885,4.561 0.957,0.692 2.418,0.774 2.938,1.913 0.217,0.641 -0.363,0.983 -0.779,1.183 -4.381,-0.225 -8.992,-0.164 -13.312,-0.264 0.012,-0.885 0.658,-1.535 1.426,-1.854 0.52,-0.425 0.918,0.506 1.42,-0.062 0.016,-1.132 1.83,-1.396 0.961,-2.581 0.092,-0.637 -0.307,-1.569 0.58,-1.783 0.172,-0.533 -0.273,-1.074 -0.533,-1.571 0.469,-4.234 0.033,-8.418 0.232,-12.573 0.172,-0.451 0.857,-0.895 0.682,-1.597 -0.301,-0.56 -1.287,-0.738 -0.904,-1.679 -0.4,-0.706 -0.244,-1.609 -0.812,-2.254 -0.824,-1.411 -3.596,-0.44 -3.131,-2.822 0.828,-0.4 1.959,-0.343 2.713,0.223 1.432,-0.865 3.217,1.094 4.104,-0.5 l 0.395,-0.201 c 2.422,0.507 4.883,-0.468 7.178,0.304 0.348,0.272 0.072,0.762 0.15,1.113 -1.646,1.459 -4.441,2.656 -3.885,5.545 v 6.134 c 0.139,0.352 0.432,0.067 0.637,0.111 3.309,-2.65 5.535,-5.976 8.334,-8.942 0.109,-0.472 0.217,-0.82 -0.086,-1.298 -0.668,-0.791 -2.125,-0.996 -1.842,-2.249 0.545,-0.712 1.369,-0.784 2.275,-0.73 0.428,0.273 1.039,0.693 1.475,0.411 0.979,-0.728 2.057,0.234 3.068,-0.041 0.285,0.21 0.799,0.217 1.131,0.098 1.102,-0.747 2.625,-0.85 4.002,-0.604 z m -41.285,-0.296 c 1.045,-1.18 1.51,0.988 2.617,-0.149 1.721,0.517 3.145,1.751 5.205,1.573 0.465,0.645 0.119,1.813 0.23,2.72 -0.416,0.426 -0.363,0.962 -0.779,1.389 -0.131,0.554 0.15,1.052 0.475,1.385 -0.152,0.656 0.266,1.609 -0.418,1.95 -2.404,-0.301 -2.424,-3.43 -4.51,-4.426 -2.078,-1.551 -5.225,-1.697 -7.723,-1.217 -2.086,0.609 -3.898,2.149 -5.26,3.901 -0.064,0.246 0.115,0.557 -0.193,0.656 0.102,1.545 -0.656,2.811 -0.43,4.296 -0.352,0.16 -0.131,0.533 -0.217,0.82 -0.236,0.676 -0.918,0.811 -0.928,1.572 l 0.713,0.586 c -0.289,2.98 0.148,5.724 1.766,7.825 1.211,1.746 3.227,1.896 4.902,2.702 2.799,0.1 5.9,0.595 8.109,-1.371 0.729,-2.11 2.734,-2.865 3.32,-5.018 0.436,-0.344 1.219,-0.374 1.688,-0.06 l 0.385,0.479 c 0.057,1.853 0.232,4.099 -0.264,5.76 -1.781,0.799 -2.834,2.513 -4.91,2.361 -2.174,2.481 -6.451,2.156 -9.695,1.535 -0.469,-0.356 -0.689,-0.812 -1.264,-0.923 -0.742,0.114 -1.311,0.97 -2.168,0.506 -1.98,-1.18 -4.979,-1.673 -5.623,-4.255 -1.977,-1.426 -2.254,-3.653 -3.484,-5.543 l 0.082,-5.968 c 0.865,-1.635 1.547,-3.354 1.678,-5.287 0.57,-1.104 1.578,-2.572 2.898,-2.76 0.869,-0.379 1.025,-1.221 1.057,-2.023 3.166,-2.817 7.383,-4.118 11.906,-3.666 z"
       id="path3743"
       inkscape:connector-curvature="0" />
    <path
       d="m 69.737,77.411 c 0.84,1.761 0.241,3.461 0.38,5.336 -0.729,0.628 -0.804,1.636 -1.798,2.034 -1.696,2.076 -4.721,0.553 -6.906,0.812 -1.946,-0.665 0.045,-3.313 -1.61,-4.18 -0.359,-0.829 0.672,-1 0.579,-1.681 -0.107,-1.216 -0.23,-2.72 0.421,-3.719 0.747,-0.443 1.613,-0.616 2.42,-0.893 2.362,0.34 5.395,-0.112 6.514,2.291 z M 68.064,62.794 c 0.495,-0.034 1.694,-0.45 1.599,0.475 0.077,0.393 -0.357,0.551 -0.606,0.733 0.397,1.035 2.281,0.237 1.951,1.817 -1.663,1.171 -0.604,3.491 -2.123,4.726 -1.471,0.68 -2.768,2.185 -4.568,1.419 -1.178,0.354 -2.852,0.805 -3.91,-0.053 -0.233,-1.053 -0.423,-2.167 -0.348,-3.195 l 0.284,-5.677 c 1.978,-1.64 4.86,-0.181 7.333,-0.435 z m 115.694,0.14 a 3.768,3.768 0 0 1 -3.816,3.715 3.744,3.744 0 0 1 -3.736,-3.798 3.772,3.772 0 0 1 3.818,-3.734 c 2.078,0.028 3.763,1.738 3.734,3.817 z"
       id="path3745"
       inkscape:connector-curvature="0"
       style="fill:#ffffff" />
    <path
       d="m 178.357,65.083 0.596,0.008 0.027,-2.017 1.564,0.021 c 0.967,0.013 0.688,0.894 0.783,1.451 l 0.074,0.577 0.721,0.01 c -0.242,-0.395 -0.158,-0.497 -0.211,-1.115 -0.051,-0.824 -0.07,-0.906 -0.539,-1.201 0.457,-0.344 0.645,-0.567 0.633,-1.186 -0.047,-1.05 -0.746,-1.203 -1.486,-1.213 l -2.098,-0.029 z"
       id="path3747"
       inkscape:connector-curvature="0" />
    <path
       d="m 180.533,60.956 c 0.371,0.005 0.945,0.115 0.852,0.917 -0.07,0.596 -0.463,0.714 -0.873,0.708 l -1.523,-0.021 0.021,-1.626 z M 35.222,133.027 c 0.018,0.186 -0.026,0.35 -0.192,0.471 h -0.082 l 0.007,-0.475 z m 3.127,-5.906 c -0.041,-0.062 -0.367,-0.293 -0.077,-0.391 0.144,-0.019 0.038,0.247 0.077,0.391 z m -7.503,-5.226 c 0.079,0.248 -0.15,0.43 -0.296,0.572 -0.144,-0.002 -0.265,-0.189 -0.387,-0.293 l 0.113,-0.762 c 0.352,-0.158 0.511,0.276 0.57,0.483 z m -2.018,1.556 c -0.066,0.35 0.385,0.479 0.381,0.787 0.537,-0.156 0.512,-1.311 1.206,-0.93 0.267,1.588 -2.09,2.318 -0.981,4.041 0.063,-0.102 0.207,-0.08 0.289,-0.078 0.286,0.168 0.283,0.436 0.278,0.766 l -0.375,0.283 c -0.06,-0.125 -0.204,-0.105 -0.307,-0.107 -0.058,-0.248 0.175,-0.719 -0.154,-0.744 -0.026,0.35 -0.315,0.449 -0.585,0.652 -0.368,-0.211 -0.115,-0.641 -0.193,-0.971 l 0.208,-0.162 c -0.53,-1.859 -0.894,-3.902 -0.702,-5.896 0.311,-0.119 0.412,0.006 0.698,0.133 z m 4.372,-2.162 c 0.272,2.721 0.418,5.521 0.834,8.223 -0.231,0.408 -0.644,0.404 -1.034,0.357 -0.06,-0.166 -0.222,-0.312 -0.364,-0.5 l -0.027,-7.061 -0.543,-0.871 c 0.332,-0.201 0.916,-0.791 1.134,-0.148 z m -0.816,-2.008 c 0.08,0.227 -0.231,0.387 -0.376,0.447 -0.289,0.057 -0.493,-0.09 -0.675,-0.277 -0.033,-0.658 0.81,-0.627 1.051,-0.17 z m 1.789,0.106 c -0.004,0.289 0.032,0.639 -0.276,0.656 -0.91,0.275 -0.668,-0.854 -0.58,-1.244 0.494,-0.033 0.592,0.379 0.856,0.588 z m 1.524,-0.061 c -0.131,0.533 0.269,1.383 -0.394,1.703 -1.069,-0.057 -0.229,-1.342 -0.736,-1.842 -0.079,-0.207 0.108,-0.41 0.274,-0.471 0.328,0.108 0.863,0.116 0.856,0.61 z M 28.9,118.184 c 0.358,0.889 1.558,0.473 1.214,1.52 l 0.183,0.207 c -0.188,0.266 -0.54,0.344 -0.764,0.195 -0.628,-0.707 -1.566,-1.379 -1.592,-2.512 0.51,-1.207 0.634,0.234 0.959,0.59 z m 12.018,-1.36 c -0.175,0.76 0.062,1.482 -0.483,2.176 0.286,0.209 0.445,0.582 0.277,0.848 -0.024,0.227 -0.417,0.426 -0.686,0.463 0.167,1.279 0.125,2.863 0.25,4.285 0.35,1.486 -0.019,2.881 0.207,4.428 -0.024,0.309 -0.274,0.531 -0.584,0.568 -0.308,-0.086 -0.743,0.154 -0.944,-0.197 a 11.88,11.88 0 0 1 -0.224,-3.215 c -0.348,-0.107 -0.575,-0.068 -0.445,-0.561 0.124,-0.061 0.143,0.084 0.245,0.146 0.617,-1.432 0.497,-3.184 0.541,-4.891 -0.509,-0.42 -1.42,0.041 -1.677,-0.785 0.644,-0.402 1.912,0.17 2.173,-0.834 -0.264,-0.252 -0.676,-0.258 -1.045,-0.385 -0.01,-0.742 0.003,-1.688 0.89,-1.801 0.493,0.07 1.084,0.428 1.341,-0.248 z m -2.908,-1.068 c -0.003,0.246 0.054,0.576 -0.093,0.76 l -0.093,-0.762 z m -7.084,0.273 -0.02,1.42 c -0.364,-0.52 -0.89,-1.164 -0.652,-2.006 0.6,-0.197 0.344,0.438 0.672,0.586 z m 9.095,-1.297 a 3.08,3.08 0 0 1 -0.31,1.623 c -0.433,0.014 -0.865,0.008 -1.147,-0.406 0.215,-0.656 -0.231,-1.178 -0.617,-1.533 l 0.645,-0.465 c -0.037,-0.287 -0.32,-0.662 0.114,-0.842 1.196,-0.271 0.766,1.123 1.315,1.623 z m 1.327,-0.742 c -0.002,0.145 0.015,0.412 -0.19,0.367 -0.698,-0.092 -0.646,-0.955 -1.03,-1.414 l 0.314,-0.387 c 0.531,0.235 1.205,0.655 0.906,1.434 z m -3.743,-1.76 c 0.178,0.559 -0.336,0.51 -0.607,0.754 -0.206,-0.004 -0.495,0.074 -0.637,-0.092 0.11,-0.492 0.769,-0.544 1.244,-0.662 z m -2.285,0.051 c 0.097,0.475 -0.459,0.488 -0.669,0.773 l -0.659,-0.01 c -0.4,-0.808 0.817,-0.995 1.328,-0.763 z m 6.061,-0.761 c -0.282,1.088 -1.664,-0.188 -1.907,1.023 -0.311,0.121 -0.655,-0.297 -0.918,-0.566 -0.08,-0.166 0.066,-0.289 0.169,-0.369 0.846,-0.153 1.915,-0.057 2.656,-0.088 z m -9.929,-0.875 c -0.104,0.08 -0.108,0.389 -0.375,0.281 l 0.007,-0.473 c 0.145,-0.08 0.267,0.067 0.368,0.192 z m 4.279,0.14 c -0.067,0.369 -0.3,0.9 -0.794,0.854 -0.7,0.051 -1.732,0.264 -2.364,-0.238 -0.023,-1.297 1.532,-0.639 2.219,-1.186 0.476,-0.137 0.821,0.197 0.939,0.57 z m 5.12,-1.062 c 0.053,0.658 -0.02,1.439 -0.862,1.326 -0.469,-0.336 -1.424,0.248 -1.496,-0.494 -0.054,-0.576 0.363,-0.941 0.859,-1.121 a 2.688,2.688 0 0 1 1.499,0.289 z m -5.302,-0.649 -0.004,0.309 -2.943,-0.041 c 0.004,-0.309 0.01,-0.699 0.4,-0.652 0.906,-0.03 2.044,-0.446 2.547,0.384 z m 1.515,-5.455 0.047,1.111 z m -17.363,3.92 -0.003,0.186 -0.329,-0.004 0.004,-0.268 c 0.123,0.002 0.267,-0.017 0.328,0.086 z m 4.725,-14.446 c -0.21,0.285 -0.056,1.07 -0.692,0.917 -0.347,-0.252 0.337,-0.551 -0.154,-0.764 0.087,-0.348 0.537,-0.075 0.846,-0.153 z m -3.515,-6.387 c 0.165,0.002 0.058,0.289 0.076,0.474 -0.479,0.364 -1.132,0.026 -1.604,-0.145 -0.912,-1.021 -2.631,-0.242 -3.271,-1.629 -0.676,-0.257 -1.437,-0.308 -1.819,-0.972 0.153,-0.677 0.994,-0.377 1.35,-0.846 2.115,0.399 3.448,2.249 5.268,3.118 z m -7.673,-6.28 -0.009,0.659 c 1.088,0.159 2.552,0.014 2.926,1.295 0.161,0.27 0.072,0.722 -0.32,0.84 -0.163,-0.126 -0.369,-0.129 -0.47,-0.295 -0.192,0.512 -0.771,0.689 -1.241,0.477 -0.021,-1.482 -2.298,-0.525 -2.421,-2.03 -0.205,-0.126 -0.472,-0.13 -0.655,-0.317 0.089,-0.493 0.669,-0.711 1.062,-0.912 0.39,0.006 0.885,-0.07 1.128,0.283 z m 0.023,-1.708 c 0.244,0.25 1.062,0.611 0.745,1.245 -0.971,0.213 -1.689,-1.381 -2.466,-0.301 -0.226,-0.085 -0.353,0.18 -0.557,0.075 0.011,-0.844 -0.524,-2.333 0.511,-2.751 0.797,0.443 0.53,1.86 1.767,1.732 z m 9.275,-0.923 c -0.294,0.428 -0.999,0.789 -1.508,0.37 -0.111,-0.887 -1.449,-0.925 -1.23,-1.808 1.256,-0.064 1.672,1.095 2.738,1.438 z m -1.397,-1.707 c -0.208,0.183 -0.435,0.179 -0.659,-0.009 -0.409,-0.15 -0.3,-0.663 -0.172,-0.949 0.368,0.149 0.918,0.589 0.831,0.958 z m 0.678,-1.411 c -0.085,0.164 -0.31,0.078 -0.454,0.076 -0.522,-0.934 -2.104,-1.161 -1.883,-2.29 0.857,0.547 1.834,1.302 2.337,2.214 z m -4.789,-2.041 c 0.098,0.413 -0.153,0.677 -0.583,0.547 -0.079,1.213 -0.198,2.467 -0.707,3.51 0.004,-0.309 -0.28,-0.56 -0.547,-0.604 -0.267,-0.086 -0.414,0.139 -0.581,0.28 -0.261,1.046 0.47,1.797 0.065,2.759 l -0.309,-0.004 c -0.417,-1.097 -1.81,-1.61 -1.729,-2.967 0.146,-0.184 0.375,-0.304 0.275,-0.552 -0.121,-0.167 -0.346,-0.293 -0.26,-0.58 0.931,-0.337 2.375,0.917 2.563,-0.809 0.133,-0.698 -0.702,-1.348 0.026,-1.893 0.378,-0.551 -1.03,-1.455 0.284,-1.211 0.695,0.422 1.204,0.861 1.503,1.524 z m 1.693,-4.917 c -0.023,0.206 -0.006,0.515 0.263,0.395 0.411,-0.015 0.872,-0.564 1.257,-0.106 -0.968,1.531 1.368,0.781 1.474,2.058 l -0.018,1.296 c -0.699,-0.03 -1.509,0.474 -2.098,-0.132 -0.241,-0.435 0.482,-0.61 0.117,-1.048 -0.683,0.3 -1.553,0.679 -1.83,1.333 l -0.268,-0.003 c -0.46,-0.953 0.434,-1.62 0.303,-2.548 -0.01,-0.638 0.365,-0.983 0.8,-1.245 z m 2.121,30.099 c -0.022,0.145 0.079,0.291 -0.087,0.371 l -0.268,-0.004 0.009,-0.639 c 0.144,-0.038 0.493,0.028 0.346,0.272 z m 7.021,-27.319 c 0.165,0.002 0.35,0.026 0.45,0.212 -0.545,0.733 0.086,1.277 0.241,1.979 0.078,0.372 0.687,0.957 0.187,1.423 -0.433,0.077 -0.629,-0.626 -0.912,-1.062 -0.48,-0.994 -1.089,-1.641 -1.57,-2.574 0.47,0.171 1.123,0.592 1.604,0.022 z m 4.496,-3.623 c 0.016,0.309 -0.071,0.658 -0.401,0.756 -0.248,0.079 -0.286,-0.189 -0.449,-0.314 L 31.6,66.66 c 0.225,0.086 0.599,-0.156 0.759,0.216 z m 2.294,-2.232 c 0.174,0.826 -0.266,1.396 -0.968,1.572 -0.516,0.096 -0.632,-0.462 -0.938,-0.672 0.416,-0.344 0.363,-0.962 0.778,-1.204 0.371,0.005 0.886,-0.049 1.128,0.304 z"
       id="path3749"
       inkscape:connector-curvature="0"
       style="fill:#ffffff" />
    <path
       d="m 35.636,60.499 0.103,10e-4 -0.021,1.523 -0.102,-0.001 z"
       id="path3751"
       inkscape:connector-curvature="0" />
    <path
       d="m 32.934,57.91 -0.288,-0.004 0.004,-0.308 0.288,0.003 z m -9.622,18.763 c -0.232,0.43 -0.618,0.054 -0.863,-0.094 l 0.008,-0.556 c 0.517,-0.198 0.673,0.422 0.855,0.65 z m 2.443,-7.047 c 0.057,0.31 -0.009,0.618 -0.279,0.84 -0.657,-0.091 -0.235,-0.806 -0.354,-1.219 0.29,-0.119 0.596,0.111 0.633,0.379 z m -0.814,-2.192 c -0.169,0.285 -0.266,-0.127 -0.472,-0.089 l 0.005,-0.391 c 0.206,0.044 0.449,0.274 0.467,0.48 z m 86.518,63.16 c 0.885,0 1.461,0.412 1.461,1.049 0,0.494 -0.309,1.01 -0.844,1.4 a 2.246,2.246 0 0 1 -1.357,0.453 c -0.844,0 -1.461,-0.434 -1.461,-1.07 0,-0.516 0.35,-1.051 0.945,-1.482 0.33,-0.227 0.783,-0.35 1.256,-0.35 z m -17.082,0 c 0.885,0 1.461,0.41 1.461,1.049 0,0.494 -0.309,1.008 -0.844,1.4 a 2.296,2.296 0 0 1 -1.358,0.451 c -0.823,0 -1.44,-0.432 -1.44,-1.07 0,-0.514 0.35,-1.049 0.946,-1.48 0.33,-0.227 0.762,-0.35 1.235,-0.35 z m -20.375,-0.002 c 0.864,0 1.44,0.412 1.44,1.051 0,0.494 -0.289,1.008 -0.824,1.398 a 2.346,2.346 0 0 1 -1.378,0.453 c -0.844,0 -1.441,-0.432 -1.441,-1.07 0,-0.514 0.329,-1.049 0.947,-1.48 0.309,-0.227 0.762,-0.352 1.256,-0.352 z m -12.966,2.263 c -0.72,0.412 -1.296,0.619 -1.749,0.619 -0.556,0 -0.988,-0.289 -0.988,-0.639 0,-0.453 0.576,-0.803 1.461,-0.803 0.412,0 0.906,0.082 1.482,0.246 z m 105.622,-1.644 -0.557,1.586 c -0.576,0.35 -1.111,0.535 -1.646,0.535 -0.863,0 -1.42,-0.412 -1.42,-1.111 0,-0.494 0.289,-0.947 0.762,-1.256 a 2.256,2.256 0 0 1 1.275,-0.371 c 0.598,0 1.092,0.207 1.586,0.617 z m -5.804,0.041 -0.576,1.646 c -0.557,0.371 -1.092,0.557 -1.627,0.557 -0.863,0 -1.42,-0.412 -1.42,-1.152 0,-0.516 0.289,-0.988 0.762,-1.318 a 2.272,2.272 0 0 1 1.277,-0.369 c 0.595,-0.001 1.089,0.204 1.584,0.636 z m -8.954,0.557 c 0.453,-0.803 1.215,-1.215 2.059,-1.215 0.865,0 1.461,0.412 1.461,1.07 0,0.041 -0.02,0.082 -0.02,0.145 z m -10.537,1.048 c -0.74,0.412 -1.316,0.617 -1.75,0.617 -0.576,0 -0.986,-0.287 -0.986,-0.637 0,-0.453 0.576,-0.803 1.461,-0.803 0.412,0 0.904,0.082 1.48,0.246 z m -7.058,-1.646 -0.576,1.584 c -0.576,0.352 -1.111,0.535 -1.646,0.535 -0.865,0 -1.42,-0.41 -1.42,-1.111 0,-0.492 0.287,-0.945 0.76,-1.254 a 2.307,2.307 0 0 1 1.277,-0.371 c 0.616,0 1.111,0.205 1.605,0.617 z m -13.584,0.041 -0.598,1.646 c -0.555,0.371 -1.068,0.557 -1.625,0.557 -0.865,0 -1.42,-0.412 -1.42,-1.154 0,-0.514 0.287,-0.986 0.762,-1.316 a 2.312,2.312 0 0 1 1.275,-0.371 c 0.598,-0.001 1.092,0.206 1.606,0.638 z m 48.16,0.557 c 0.453,-0.803 1.213,-1.215 2.057,-1.215 0.865,0 1.441,0.412 1.441,1.07 v 0.145 z"
       id="path3753"
       inkscape:connector-curvature="0"
       style="fill:#ffffff" />
  </g>
</svg>
