<?xml version="1.0" encoding="UTF-8" standalone="no"?>
<svg
   xmlns:dc="http://purl.org/dc/elements/1.1/"
   xmlns:cc="http://creativecommons.org/ns#"
   xmlns:rdf="http://www.w3.org/1999/02/22-rdf-syntax-ns#"
   xmlns:svg="http://www.w3.org/2000/svg"
   xmlns="http://www.w3.org/2000/svg"
   xmlns:sodipodi="http://sodipodi.sourceforge.net/DTD/sodipodi-0.dtd"
   xmlns:inkscape="http://www.inkscape.org/namespaces/inkscape"
   viewBox="0 0 663.07798 428.00091"
   height="428.00092"
   width="663.078"
   xml:space="preserve"
   id="svg2"
   version="1.1"
   sodipodi:docname="dometic-logo.svg"
   inkscape:version="0.92.3 (2405546, 2018-03-11)"><sodipodi:namedview
     pagecolor="#ffffff"
     bordercolor="#666666"
     borderopacity="1"
     objecttolerance="10"
     gridtolerance="10"
     guidetolerance="10"
     inkscape:pageopacity="0"
     inkscape:pageshadow="2"
     inkscape:window-width="1309"
     inkscape:window-height="681"
     id="namedview28"
     showgrid="false"
     inkscape:zoom="0.29734156"
     inkscape:cx="331.46636"
     inkscape:cy="213.9052"
     inkscape:window-x="0"
     inkscape:window-y="0"
     inkscape:window-maximized="0"
     inkscape:current-layer="svg2" /><metadata
     id="metadata8"><rdf:RDF><cc:Work
         rdf:about=""><dc:format>image/svg+xml</dc:format><dc:type
           rdf:resource="http://purl.org/dc/dcmitype/StillImage" /></cc:Work></rdf:RDF></metadata><defs
     id="defs6"><clipPath
       id="clipPath18"
       clipPathUnits="userSpaceOnUse"><path
         id="path16"
         d="M 0,595.275 H 841.891 V 0 H 0 Z"
         inkscape:connector-curvature="0" /></clipPath></defs><g
     transform="matrix(1.3333333,0,0,-1.3333333,-229.79426,610.94572)"
     id="g10"><g
       id="g12"><g
         clip-path="url(#clipPath18)"
         id="g14"><g
           transform="translate(447.8926,426.0313)"
           id="g20"><path
             id="path22"
             style="fill:#231f20;fill-opacity:1;fill-rule:nonzero;stroke:none"
             d="M 0,0 C -4.443,-4.44 -4.438,-11.641 0.004,-16.082 L 54.133,-70.18 -8.051,-132.328 24.145,-164.49 c 4.443,-4.442 11.643,-4.444 16.087,-0.002 L 134.598,-70.18 32.181,32.178 Z"
             inkscape:connector-curvature="0" /></g><g
           transform="translate(450.083,363.8926)"
           id="g24"><path
             id="path26"
             style="fill:#231f20;fill-opacity:1;fill-rule:nonzero;stroke:none"
             d="m 0,0 -94.364,94.313 -102.417,-102.358 32.195,-32.164 c 4.444,-4.441 11.648,-4.436 16.092,0.005 l 54.129,54.099 62.184,-62.15 32.179,32.177 C 4.441,-11.637 4.442,-4.441 0,0"
             inkscape:connector-curvature="0" /></g><g
           transform="translate(192.3447,158.209)"
           id="g28"><path
             id="path30"
             style="fill:#231f20;fill-opacity:1;fill-rule:nonzero;stroke:none"
             d="M 0,0 V 40 H 11.667 C 22.695,40 31.066,31.028 31.066,20 31.066,8.973 22.695,0 11.667,0 Z m 11.667,60 -26.666,-0.002 c -2.762,0 -5,-2.238 -5,-5 V -20 h 31.666 c 22.057,0 40,17.943 40,40 0,22.057 -17.943,40 -40,40"
             inkscape:connector-curvature="0" /></g><g
           transform="translate(403.4063,218.207)"
           id="g32"><path
             id="path34"
             style="fill:#231f20;fill-opacity:1;fill-rule:nonzero;stroke:none"
             d="M 0,0 C -2.175,0 -4.021,-1.392 -4.709,-3.332 L -21.666,-48.33 -38.624,-3.332 C -39.311,-1.392 -41.157,0 -43.333,0 l -23.333,0.002 v -80 h 19.999 v 46.667 l 18.335,-46.067 H -15 l 18.333,46.064 v -46.664 h 20 v 80 z"
             inkscape:connector-curvature="0" /></g><g
           transform="translate(571.7412,138.209)"
           id="g36"><path
             id="path38"
             style="fill:#231f20;fill-opacity:1;fill-rule:nonzero;stroke:none"
             d="M 0,0 H 21.667 V 40 80 H 0 Z"
             inkscape:connector-curvature="0" /></g><g
           transform="translate(436.7402,218.209)"
           id="g40"><path
             id="path42"
             style="fill:#231f20;fill-opacity:1;fill-rule:nonzero;stroke:none"
             d="m 0,0 v -75 c 0,-2.762 2.238,-5 5,-5 h 51.666 v 20 H 20 v 13.334 H 50 V -30 H 20 v 10 h 36.666 v 19.999 z"
             inkscape:connector-curvature="0" /></g><g
           transform="translate(500.0742,218.208)"
           id="g44"><path
             id="path46"
             style="fill:#231f20;fill-opacity:1;fill-rule:nonzero;stroke:none"
             d="m 0,0 v -14.999 c 0,-2.762 2.238,-5 5,-5 h 16.667 v -60 H 43.333 V -20 H 65 V 0 Z"
             inkscape:connector-curvature="0" /></g><g
           transform="translate(290.0732,157.6094)"
           id="g48"><path
             id="path50"
             style="fill:#231f20;fill-opacity:1;fill-rule:nonzero;stroke:none"
             d="m 0,0 c -11.024,0 -19.993,9.241 -19.993,20.6 0,11.359 8.969,20.6 19.993,20.6 11.025,0 19.995,-9.241 19.995,-20.6 C 19.995,9.241 11.025,0 0,0 m 0,61.6 c -22.309,0 -40.394,-18.357 -40.394,-41 0,-22.644 18.085,-41 40.394,-41 22.309,0 40.395,18.356 40.395,41 0,22.643 -18.086,41 -40.395,41"
             inkscape:connector-curvature="0" /></g><g
           transform="translate(640.0752,198.8096)"
           id="g52"><path
             id="path54"
             style="fill:#231f20;fill-opacity:1;fill-rule:nonzero;stroke:none"
             d="M 0,0 C 6.037,0 11.453,-2.774 15.122,-7.146 L 29.579,7.31 C 22.203,15.358 11.684,20.399 0,20.399 c -22.309,0 -40.394,-18.356 -40.394,-41 0,-22.643 18.085,-41 40.394,-41 11.684,0 22.202,5.041 29.578,13.09 L 15.121,-34.056 C 11.452,-38.427 6.036,-41.2 0,-41.2 c -11.024,0 -19.994,9.241 -19.994,20.599 C -19.994,-9.241 -11.024,0 0,0"
             inkscape:connector-curvature="0" /></g></g></g></g></svg>