<?xml version="1.0" encoding="UTF-8" standalone="no"?>
<svg
   xmlns:dc="http://purl.org/dc/elements/1.1/"
   xmlns:cc="http://creativecommons.org/ns#"
   xmlns:rdf="http://www.w3.org/1999/02/22-rdf-syntax-ns#"
   xmlns:svg="http://www.w3.org/2000/svg"
   xmlns="http://www.w3.org/2000/svg"
   xmlns:sodipodi="http://sodipodi.sourceforge.net/DTD/sodipodi-0.dtd"
   xmlns:inkscape="http://www.inkscape.org/namespaces/inkscape"
   id="Layer_1"
   data-name="Layer 1"
   width="200.01743"
   height="82.901749"
   viewBox="0 0 200.01743 82.901749"
   version="1.1"
   sodipodi:docname="florsheim-logo-black.svg"
   inkscape:version="0.92.3 (2405546, 2018-03-11)">
  <metadata
     id="metadata41">
    <rdf:RDF>
      <cc:Work
         rdf:about="">
        <dc:format>image/svg+xml</dc:format>
        <dc:type
           rdf:resource="http://purl.org/dc/dcmitype/StillImage" />
      </cc:Work>
    </rdf:RDF>
  </metadata>
  <defs
     id="defs39" />
  <sodipodi:namedview
     pagecolor="#ffffff"
     bordercolor="#666666"
     borderopacity="1"
     objecttolerance="10"
     gridtolerance="10"
     guidetolerance="10"
     inkscape:pageopacity="0"
     inkscape:pageshadow="2"
     inkscape:window-width="1328"
     inkscape:window-height="701"
     id="namedview37"
     showgrid="false"
     inkscape:zoom="1.5966387"
     inkscape:cx="99.17585"
     inkscape:cy="41.291718"
     inkscape:window-x="0"
     inkscape:window-y="0"
     inkscape:window-maximized="0"
     inkscape:current-layer="Layer_1" />
  <title
     id="title2">FL Logo Black-01</title>
  <g
     style="opacity:0.95"
     id="g34"
     transform="translate(-19.82415,-17.389972)">
    <path
       d="m 70.58,100.14 c -2.8,0.57 -4.24,-0.5 -4.09,-2.64 v -0.56 l 2.45,-0.5 v 0.34 c -0.08,1.13 0.65,1.47 1.74,1.25 a 1.77,1.77 0 0 0 1.64,-1.61 c 0.15,-2 -5.56,-0.3 -5.3,-4 a 5.09,5.09 0 0 1 4.35,-4.31 c 2.6,-0.53 4.06,0.61 3.91,2.59 v 0.56 l -2.45,0.5 V 91.42 C 72.89,90.53 72.36,90 71.23,90.23 a 1.79,1.79 0 0 0 -1.6,1.55 c -0.14,1.93 5.6,0.23 5.34,3.87 a 5.1,5.1 0 0 1 -4.39,4.45"
       style="fill:#231f20"
       id="path4"
       inkscape:connector-curvature="0" />
    <polygon
       points="80.13,93.44 79.8,97.96 77.11,98.5 77.94,87.13 80.63,86.59 80.29,91.25 83.89,90.52 84.24,85.86 86.92,85.32 86.09,96.69 83.41,97.23 83.74,92.71 "
       style="fill:#231f20"
       id="polygon6" />
    <path
       d="m 93.11,95.59 c -2.79,0.56 -4.38,-0.85 -4.21,-3.24 l 0.27,-3.72 a 5.71,5.71 0 0 1 4.82,-5 c 2.79,-0.56 4.37,0.82 4.2,3.22 l -0.27,3.72 a 5.73,5.73 0 0 1 -4.8,5.06 m 2.36,-8.35 c 0.08,-1 -0.47,-1.7 -1.64,-1.47 A 2.31,2.31 0 0 0 91.92,88 l -0.29,4 c -0.07,1 0.46,1.69 1.65,1.45 a 2.32,2.32 0 0 0 1.91,-2.17 z"
       style="fill:#231f20"
       id="path8"
       inkscape:connector-curvature="0" />
    <polygon
       points="108.53,80.94 108.37,83.15 103.53,84.13 103.35,86.53 106.74,85.85 106.61,87.63 103.22,88.31 103.02,91.01 107.87,90.03 107.7,92.32 100.17,93.84 101,82.47 "
       style="fill:#231f20"
       id="polygon10" />
    <path
       d="m 120.92,82.48 v -0.67 c 0.07,-1 -0.49,-1.43 -1.51,-1.22 a 2.31,2.31 0 0 0 -2,2.2 l -0.29,4 c -0.08,1.06 0.56,1.62 1.72,1.38 a 1.94,1.94 0 0 0 1.69,-1.82 l 0.05,-0.73 2.48,-0.5 -0.07,0.9 a 5.13,5.13 0 0 1 -4.39,4.37 c -2.85,0.58 -4.36,-0.9 -4.19,-3.26 l 0.27,-3.67 a 5.78,5.78 0 0 1 4.8,-5.08 c 2.63,-0.53 4.05,0.66 3.9,2.73 l -0.06,0.84 z"
       style="fill:#231f20"
       id="path12"
       inkscape:connector-curvature="0" />
    <path
       d="m 129.51,88.22 c -2.79,0.56 -4.39,-0.85 -4.21,-3.24 l 0.27,-3.72 a 5.72,5.72 0 0 1 4.82,-5 c 2.79,-0.56 4.37,0.82 4.19,3.22 l -0.27,3.72 a 5.72,5.72 0 0 1 -4.8,5.06 m 2.36,-8.35 c 0.08,-1 -0.47,-1.71 -1.64,-1.47 a 2.31,2.31 0 0 0 -1.91,2.19 l -0.29,4 c -0.07,1 0.46,1.69 1.65,1.45 a 2.32,2.32 0 0 0 1.91,-2.17 z"
       style="fill:#231f20"
       id="path14"
       inkscape:connector-curvature="0" />
    <polygon
       points="145.51,79.07 143.25,85.13 141.37,85.51 139.97,80.19 139.56,78.3 139,85.98 136.57,86.48 137.4,75.11 141.04,74.37 142.44,79.87 142.75,81.27 143.28,79.7 145.5,73.47 149.08,72.74 148.25,84.11 145.68,84.63 146.24,76.93 "
       style="fill:#231f20"
       id="polygon16" />
    <path
       d="m 156.25,78.41 -2.21,0.45 -0.3,4.15 -2.69,0.54 0.83,-11.37 4.9,-1 c 2.21,-0.45 3.28,0.56 3.15,2.36 l -0.08,1.16 a 4.09,4.09 0 0 1 -3.59,3.7 m 1,-4.23 c 0,-0.67 -0.24,-1 -1.06,-0.83 l -1.81,0.37 -0.22,3.29 1.83,-0.37 a 1.33,1.33 0 0 0 1.2,-1.3 z"
       style="fill:#231f20"
       id="path18"
       inkscape:connector-curvature="0" />
    <path
       d="m 167,80.33 -0.47,-2.16 -3.12,0.63 -0.82,2.42 -2.5,0.51 4.19,-12.05 2.94,-0.59 2.54,10.69 z m -1.56,-7.84 -1.44,4.33 2.15,-0.44 z"
       style="fill:#231f20"
       id="path20"
       inkscape:connector-curvature="0" />
    <polygon
       points="174.58,72.4 174.11,78.88 171.62,79.39 172.46,68.02 174.74,67.55 177.62,72.03 178.37,73.28 178.85,66.72 181.33,66.22 180.5,77.59 178.35,78.03 175.38,73.65 "
       style="fill:#231f20"
       id="polygon22" />
    <polygon
       points="185.84,76.51 186.17,71.95 183.09,65.86 185.98,65.28 187.81,69.38 190.21,64.42 192.96,63.87 188.87,71.41 188.54,75.97 "
       style="fill:#231f20"
       id="polygon24" />
    <ellipse
       cx="177.53"
       cy="24.34"
       rx="2.9200001"
       ry="2.8699999"
       transform="rotate(-84.33,177.54269,24.340787)"
       style="fill:#231f20"
       id="ellipse26" />
    <path
       d="m 165.46,34.9 c -4.44,-0.22 -8.33,3.62 -10.75,8.37 -3,5.92 -2.18,13 -2.18,13 0,0 -2.24,3.52 -4.29,3.52 a 1.06,1.06 0 0 1 -0.6,-0.21 c -1.42,-1 -1.26,-2.88 -1.09,-4.42 0,-0.25 0.89,-10.56 1,-12.11 0.2,-2.32 -1.91,-4 -3.45,-3.69 -4.05,0.9 -8.23,6.33 -8.23,6.33 l 0.3,-3.9 c 0.08,-0.09 8.29,-9 9.19,-16.8 0.57,-4.9 -0.28,-7.61 -3,-7.6 -1.25,0 -3.19,1.26 -5,3.47 a 27.8,27.8 0 0 0 -4.91,10.64 114.14,114.14 0 0 0 -2.18,13.07 c -0.13,1.23 -0.78,8.12 -1,11.42 v 0 a 11,11 0 0 1 -1,2.91 21.57,21.57 0 0 1 -3.93,5.45 c -1,1.07 -1.85,1.58 -1.93,1.72 a 12.06,12.06 0 0 0 1.6,-5.59 L 124,58.69 a 11.63,11.63 0 0 0 -1.57,-5.18 c -0.16,-0.31 -0.33,-0.59 -0.48,-0.91 a 14.07,14.07 0 0 1 -1.16,-2.87 4,4 0 0 1 0.1,-2.8 3,3 0 0 1 1.82,-1.66 4.93,4.93 0 0 1 1.19,-0.14 2.69,2.69 0 0 1 1,0.25 1,1 0 0 0 1.33,-0.59 1,1 0 0 0 -0.57,-1.35 4.67,4.67 0 0 0 -1.78,-0.39 c -3.43,0 -5.21,2.24 -6.5,3.88 l -0.2,0.25 c -0.57,0.72 -0.86,1.13 -1.15,1.53 -0.29,0.4 -0.54,0.77 -1.07,1.43 a 7.7,7.7 0 0 1 -4,2.26 3.55,3.55 0 0 0 0.72,-2.8 3.45,3.45 0 0 0 -4.06,-2.81 h -0.09 c -2,0.41 -4,3.46 -4.2,3.66 l -0.63,0.84 0.25,-3 -5.71,1.17 c -1.58,4.34 -6.65,5.13 -6.65,5.13 A 7.48,7.48 0 0 0 86.29,51.21 6.6,6.6 0 0 0 85.1,51 C 80.31,50.59 75.33,55.37 73.52,62.12 A 19.14,19.14 0 0 0 73.07,70 l -0.46,0.79 c -1.68,2.8 -2.9,4.82 -4.7,4.67 a 2.49,2.49 0 0 1 -0.53,-0.11 c -2.13,-0.66 -1.7,-5.41 -1.65,-5.94 a 91.13,91.13 0 0 0 8.9,-18.86 c 2.66,-8 1.78,-11.25 1,-12.5 A 2,2 0 0 0 74.08,36.92 C 71.93,36.78 67.57,39.26 63.6,49.76 A 80.89,80.89 0 0 0 58.76,72 v 0.08 0.07 C 56.6,75.49 53.17,80.44 51.39,83 a 0.85,0.85 0 0 0 0.86,1.32 0.83,0.83 0 0 0 0.47,-0.29 c 1.07,-1.32 4.12,-5.18 6.12,-8.18 l 0.42,-0.63 c 0,0 0.17,1 0.2,1.13 a 13.16,13.16 0 0 0 0.6,2 7.88,7.88 0 0 0 1.36,2.34 3.31,3.31 0 0 0 2.42,1.2 6.86,6.86 0 0 0 4,-1.48 15.76,15.76 0 0 0 2.74,-2.58 22.77,22.77 0 0 0 1.8,-2.44 c 0.23,-0.36 1.46,-2.49 1.46,-2.49 l 0.33,0.74 a 7.85,7.85 0 0 0 4.93,4.54 6.62,6.62 0 0 0 1.19,0.21 C 85.05,78.75 90,74 91.85,67.23 A 17.73,17.73 0 0 0 91.77,57.13 L 91.6,56.68 a 10.85,10.85 0 0 0 5.31,-3.1 L 95,75.65 l 5.76,-1.18 1.37,-16.89 c 0.23,-2.66 1.42,-5.4 3.22,-5.24 h 0.18 a 1.15,1.15 0 0 0 0.09,0.14 5.49,5.49 0 0 0 5.58,2 11.27,11.27 0 0 0 4.63,-2.29 15,15 0 0 0 1.31,6.81 11.49,11.49 0 0 1 1.05,4.95 c 0,3.53 -1.75,5.17 -3.39,5.38 a 1.51,1.51 0 0 1 -1.36,-0.54 3.72,3.72 0 0 0 1.32,-2.59 3.5,3.5 0 0 0 -3.54,-3.5 3.54,3.54 0 0 0 -3.45,3.6 v 0.17 a 5.2,5.2 0 0 0 1,2.94 v 0 a 5.17,5.17 0 0 0 2.82,1.81 10.18,10.18 0 0 0 4.52,0.2 17.88,17.88 0 0 0 3.8,-1.22 h 0.06 a 23.06,23.06 0 0 0 8.83,-7.91 l -0.57,6.69 5.77,-1.14 c 0.21,-1.78 1.3,-15 1.45,-16.82 0.19,-2.29 2.82,-5.66 4.74,-6 1,-0.19 1.44,1.32 1.31,2.89 l -1.06,12.69 c -0.36,4.2 1.8,5.62 3.4,5.27 0.84,-0.18 4.35,0.08 9.59,-7 a 8.52,8.52 0 0 0 8.32,3.37 c 4.35,-0.81 7.84,-5.64 9.24,-7.87 l 0.93,-1.81 v 2.08 c 0,0 -0.06,4.62 2.53,4.85 3.77,0.32 8.27,-6.43 8.32,-6.49 l 1.07,-1.49 -0.53,6.33 5.69,-1.18 1.42,-16.53 c 0.13,-1.67 2.65,-5.34 4.26,-5.15 1.32,0.16 1.12,2.57 1.08,3 l -1.46,17.63 5.74,-1.16 1.39,-16.45 c 0.16,-1.69 2.69,-5.46 4.33,-5.26 1.1,0.13 1.14,1.89 1.05,2.92 l -0.8,9.88 c -0.4,4.66 2.37,6.44 4.51,6.51 A 9.85,9.85 0 0 0 218.46,48 c 0.58,-0.66 1,-1.16 1.25,-1.53 a 0.62,0.62 0 0 0 -0.44,-1 1.13,1.13 0 0 0 -1,0.42 c -1.16,1.42 -3.1,3.47 -4.65,3.4 a 1.59,1.59 0 0 1 -1.29,-0.63 c -0.91,-1.06 -0.68,-3.25 -0.57,-4.41 l 1,-12.67 c 0.28,-3.25 -2.67,-4.95 -4,-4.67 -3.62,0.76 -6.92,5.7 -6.92,5.7 a 4.62,4.62 0 0 0 -3.79,-3.44 c -2.64,-0.27 -6.93,5.11 -7,5.16 l -0.3,0.38 0.35,-4.21 -5.74,1.17 c -0.16,1.51 -0.84,10.19 -1,12.27 a 15.64,15.64 0 0 1 -2,5.73 c 0,0 -2,3.47 -3.42,3 -1,-0.3 -0.93,-1.53 -0.87,-2.27 L 179.57,32.77 174,34 c -0.14,1.74 -0.67,11.93 -4.31,18 -2.35,3.91 -5.36,6.2 -7.69,6.1 -2.93,-0.12 -3.43,-5 -3.43,-5 0,0 9.87,-3.1 11,-12 0.43,-2.81 -1.03,-6.05 -4.11,-6.2 z M 139,25.17 c 0.86,-2.1 2.3,-4.17 3.4,-4.07 a 0.84,0.84 0 0 1 0.59,0.32 c 0.37,0.46 0.33,1.44 0.19,2.86 -0.62,6.25 -6.25,12.72 -6.25,12.72 0,0 0.51,-8.05 2.07,-11.83 z m -74,39.74 0.1,-1 a 66.43,66.43 0 0 1 2.55,-14.49 c 2.12,-6.55 4.24,-9.34 5.54,-9.23 a 0.74,0.74 0 0 1 0.58,0.4 c 0.68,1.14 0.19,5.12 -2.42,11.47 A 92.42,92.42 0 0 1 65.6,63.83 Z m 23.52,-1.65 c -1.17,4.85 -4,8.34 -6.52,8.12 a 2.59,2.59 0 0 1 -0.4,-0.07 c -1.29,-0.32 -2.25,-1.6 -2.71,-3.61 a 15.35,15.35 0 0 1 0.23,-6.77 14.38,14.38 0 0 1 3.42,-6.71 l 0.4,-0.38 c 0.76,4.52 5.91,3.41 5.91,3.41 l 0.1,0.43 a 16.48,16.48 0 0 1 -0.44,5.58 z m 70.77,-19.41 c 0.78,-2.58 3.43,-7.06 6.11,-6.2 1.2,0.39 1.39,2.28 1,4.39 -0.57,2.86 -2.37,6.22 -8.05,8.17 a 27.73,27.73 0 0 1 0.93,-6.37 z"
       style="fill:#231f20"
       id="path28"
       inkscape:connector-curvature="0" />
    <path
       d="m 23.35,79.64 a 4.18,4.18 0 0 1 5,3.3 4.32,4.32 0 0 1 -3.29,5.06 4.14,4.14 0 0 1 -0.84,0.1 h -0.63 c 0,0 1.37,4.27 5.65,4.56 h 0.55 c 2.47,0.08 6.88,-1.4 8.58,-12.21 0.47,-3 0.68,-5.55 1,-9.66 0.47,-5.44 0.82,-9.56 0.82,-9.56 A 59,59 0 0 1 43,49.73 c 1.47,-4.06 4.22,-9.65 9,-13.26 a 2.76,2.76 0 0 1 1,-0.55 0.91,0.91 0 0 1 0.27,0 0.85,0.85 0 0 1 0.57,0.28 c 0.41,0.48 0.26,1.34 -0.51,2.89 a 46.67,46.67 0 0 0 -4.83,18.2 v 0.58 1.52 l 8.48,-1.71 a 0.48,0.48 0 0 1 0.57,0.53 5.67,5.67 0 0 1 -4.55,5.03 l -4.7,0.95 -1.1,13.33 c -0.73,7.79 -4.28,13.86 -9.17,16.63 a 15.24,15.24 0 0 1 -8.35,1.92 c -0.11,0 -4.63,-0.42 -7,-3.45 -2,-2.56 -3.07,-4.41 -2.82,-9.05 a 4.3,4.3 0 0 1 3.49,-3.93 z"
       style="fill:#231f20"
       id="path30"
       inkscape:connector-curvature="0" />
    <path
       d="m 86.93,17.48 a 0.84,0.84 0 0 0 -0.54,0.19 c -1.33,1.09 -8.88,7.18 -19,8.57 -6.54,0.9 -14.5,0.68 -23.6,3.76 -7.7,2.6 -13,7.54 -14.67,10 a 13,13 0 0 0 -1.73,11 v 0 a 4.29,4.29 0 1 0 3.17,-5.22 c 0.08,-0.42 1.65,-7.64 14.58,-11 13.33,-3.45 15.48,-1 24,-3.22 7.86,-2 15.33,-7.49 18.54,-12.82 a 0.86,0.86 0 0 0 -0.75,-1.26 z"
       style="fill:#231f20"
       id="path32"
       inkscape:connector-curvature="0" />
  </g>
</svg>
