<svg xmlns="http://www.w3.org/2000/svg" xmlns:xlink="http://www.w3.org/1999/xlink" width="136" height="45" viewBox="0 0 136 45"><defs><path id="pn3ia" d="M1336.73 6237.464a1.26 1.26 0 0 0-.935-.4c-.369.003-.68.138-.94.408a1.304 1.304 0 0 0-.377.937c.002.373.133.69.393.95s.57.388.935.386c.363-.002.672-.133.928-.396.258-.266.384-.584.383-.953a1.3 1.3 0 0 0-.387-.932zm.196-.208c.314.314.472.69.474 1.134 0 .456-.157.842-.475 1.155a1.55 1.55 0 0 1-1.117.46 1.55 1.55 0 0 1-1.14-.46 1.561 1.561 0 0 1-.468-1.14c0-.47.163-.862.495-1.174a1.56 1.56 0 0 1 1.097-.441c.442-.002.82.154 1.134.466zm-.929 1.02c.06-.046.09-.116.09-.214 0-.097-.049-.165-.144-.202a.806.806 0 0 0-.27-.036l-.112.002.002.515h.18a.446.446 0 0 0 .254-.066zm-.43 1.016l-.465.002-.007-1.782h.493l.366.001c.14.01.257.04.35.09.158.088.238.228.239.425 0 .15-.04.258-.124.325a.583.583 0 0 1-.306.121.603.603 0 0 1 .252.102c.104.085.158.216.158.399v.158a.357.357 0 0 0 .017.104l.014.05-.442.003a1.15 1.15 0 0 1-.028-.247.835.835 0 0 0-.03-.216.21.21 0 0 0-.132-.131.474.474 0 0 0-.158-.028l-.102-.006h-.098z"/><path id="pn3ib" d="M1284.6 6195H1223v22.5h50.98l10.62-22.5"/><path id="pn3ic" d="M1279.722 6240.003H1223v-20.893h66.4l-9.678 20.893"/><path id="pn3id" d="M1290.597 6217.395l-15.207.005 10.674-22.094 14.991-.004-4.876 10.807 12.796-10.805 15.381-.014-13.796 10.383 5.674 11.735h-14.63l-5.459-11.218-5.548 11.205"/><path id="pn3ie" d="M1333.63 6204.946c-1.964-.583-4.977-1.85-4.76-4.34.378-2.914 2.954-3.283 4.35-3.228 1.394.054 3.672.97 2.956 3.606-.356.71-1.438.758-1.5-.77-.013-.338-.264-.82-.956-1.265-.578-.37-1.437-.375-2.113.175-1.44 1.176-1.022 3.444 1.017 3.976 2.04.533 3.861.533 5.26-1.002 1.396-1.535 1.061-4.284-2.318-5.56-3.379-1.274-6.798-1.867-10.931.196-4.133 2.062-3.46 4.554-3.46 4.554s-.144 1.418 2.055 2.48c.91.488 1.49.718 1.49.718s-3.067.617-4.427 1.224c-1.144.51-4.415 1.941-4.954 4.507-.512 2.444 1.828 5.146 6.442 6.377 4.497 1.2 9.613 1.094 13.944-1.249 4.425-2.395 3.515-5.482 2.247-7.122 3.738 1.993 4.29 2.59 6.387 5.05 3.19 3.746 5.43 4.296 8.102 4.047 3.91-.364 6.55-3.2 6.35-7.569-.199-4.31-5.269-7.72-10.34-5.403 0 0 5.653-.21 4.59 3.83-.982 3.73-5.306 1.767-6.921.656-1.106-.756-6.65-3.343-9.871-3.029-3.218.316-7.424 1.937-6.98 4.553.458 2.688 2.368 2.768 2.789 2.546.4-.211.141-2.559 1.397-2.012 1.058.46.533 3.286-1.614 3.92-2.146.634-6.097-.273-6.739-3.983-.105-1.273.927-2.44.927-2.44s1.423-1.904 4.641-2.693c2.318-.57 2.94-.75 2.94-.75"/><path id="pn3if" d="M1291.067 6219.173l26.157.006 6.422 11.948 5.58-12.017 12.974.013-9.424 20.88-19.645-.002-8.131-17.208-7.949 17.203-15.651.004 9.667-20.827"/></defs><g><g transform="translate(-1223 -6195)"><g><use xlink:href="#pn3ia"/></g><g><use xlink:href="#pn3ib"/></g><g><use xlink:href="#pn3ic"/></g><g><g><use xlink:href="#pn3id"/></g><g><use xlink:href="#pn3ie"/></g></g><g><use xlink:href="#pn3if"/></g></g></g></svg>