<?xml version="1.0" encoding="UTF-8" standalone="no"?>
<!-- Created with Inkscape (http://www.inkscape.org/) -->

<svg
   xmlns:dc="http://purl.org/dc/elements/1.1/"
   xmlns:cc="http://creativecommons.org/ns#"
   xmlns:rdf="http://www.w3.org/1999/02/22-rdf-syntax-ns#"
   xmlns:svg="http://www.w3.org/2000/svg"
   xmlns="http://www.w3.org/2000/svg"
   xmlns:sodipodi="http://sodipodi.sourceforge.net/DTD/sodipodi-0.dtd"
   xmlns:inkscape="http://www.inkscape.org/namespaces/inkscape"
   width="52.916931mm"
   height="25.832384mm"
   viewBox="0 0 52.916931 25.832384"
   version="1.1"
   id="svg838"
   inkscape:version="0.92.3 (2405546, 2018-03-11)"
   sodipodi:docname="mizuno-logo.svg">
  <defs
     id="defs832" />
  <sodipodi:namedview
     id="base"
     pagecolor="#ffffff"
     bordercolor="#666666"
     borderopacity="1.0"
     inkscape:pageopacity="0.0"
     inkscape:pageshadow="2"
     inkscape:zoom="0.25"
     inkscape:cx="206.24932"
     inkscape:cy="-300.39537"
     inkscape:document-units="mm"
     inkscape:current-layer="layer1"
     showgrid="false"
     inkscape:window-width="1920"
     inkscape:window-height="1017"
     inkscape:window-x="-8"
     inkscape:window-y="-8"
     inkscape:window-maximized="1" />
  <metadata
     id="metadata835">
    <rdf:RDF>
      <cc:Work
         rdf:about="">
        <dc:format>image/svg+xml</dc:format>
        <dc:type
           rdf:resource="http://purl.org/dc/dcmitype/StillImage" />
        <dc:title></dc:title>
      </cc:Work>
    </rdf:RDF>
  </metadata>
  <g
     inkscape:label="Layer 1"
     inkscape:groupmode="layer"
     id="layer1"
     transform="translate(-17.386774,-69.393321)">
    <path
       style="clip-rule:evenodd;fill-rule:evenodd;stroke-width:0.28284666"
       inkscape:connector-curvature="0"
       id="path4"
       d="m 38.992016,78.650044 2.661587,-0.235046 2.622272,-0.235045 -2.465857,3.444506 -0.156699,-0.156696 z m 2.661587,-3.248494 c -7.436604,0.508841 -10.528684,-1.291478 -3.131112,-5.499105 l -20.176584,4.931432 c 0,0 6.477472,1.15458 10.391503,2.25061 3.914033,1.095749 9.471686,3.835684 11.115592,9.217124 h 5.205509 c 0,-9.373821 12.289971,-11.624431 16.047023,-12.642113 l 7.710964,-1.80032 1.487208,-2.465857 c 0,0 -12.094522,3.170145 -19.687542,4.696669 -3.346075,0.704854 -6.418637,1.154863 -8.962561,1.31156 z M 32.318532,85.9885 c -1.174096,0 -1.976532,0.626505 -2.602755,1.409142 l -0.76312,0.919818 V 85.9885 H 26.31087 c -1.174097,0 -1.99605,0.626505 -2.622272,1.409142 l -6.301824,7.788747 h 3.757618 l 4.931714,-5.988428 c 0.763121,-1.017682 1.154581,-0.861268 1.624389,-0.861268 h 1.252445 l -5.538138,6.849696 h 3.737536 l 4.931714,-5.988428 c 0.78292,-1.017682 1.174096,-0.861268 1.643905,-0.861268 h 1.252445 l -5.636285,6.849696 h 4.109762 c 0.95885,0 1.526523,-0.704287 1.526523,-1.507006 V 85.9885 Z m 35.304354,8.278074 c 0.07778,0 0.136899,-0.01924 0.136899,-0.117666 0,-0.07778 -0.07835,-0.09786 -0.156982,-0.09786 h -0.156131 v 0.21553 z m -0.0198,-0.371661 c 0.234762,0 0.371661,0.05855 0.371661,0.274078 0,0.176215 -0.09787,0.234763 -0.234763,0.253995 l 0.254562,0.391744 h -0.234762 l -0.156982,-0.274078 -0.05855,-0.117666 h -0.09786 v 0.391744 h -0.196014 v -0.919817 z m 0,1.330793 h -0.01923 c -0.450293,0 -0.86127,-0.313111 -0.86127,-0.861268 0,-0.548157 0.410977,-0.880502 0.86127,-0.880502 h 0.01923 c 0.450292,0.01923 0.861267,0.332628 0.861267,0.880502 0,0.52864 -0.410975,0.861268 -0.861267,0.861268 z m 0,-1.526524 c 0.332629,0 0.606707,0.274079 0.606707,0.665256 0,0.391742 -0.274078,0.645739 -0.606707,0.66582 h -0.01923 c -0.333194,0 -0.626507,-0.274078 -0.626507,-0.66582 0,-0.410977 0.293313,-0.665256 0.626507,-0.665256 z m -5.28414,0.03932 H 62.8869 c 0.313113,0 0.508844,-0.235327 0.508844,-0.665821 V 90.45041 c 0,-0.450292 -0.195449,-0.665256 -0.508844,-0.665256 h -1.115546 c -0.31311,0 -0.508841,0.214964 -0.508841,0.665256 v 2.622271 c 0,0.43021 0.195448,0.665821 0.508841,0.665821 z m 0,-5.401522 h 2.25061 c 0.704852,0 1.330792,0.508841 1.330792,1.213695 v 4.422873 c 0,0.704288 -0.62594,1.213129 -1.330792,1.213129 h -4.481423 c -0.724369,0 -1.330793,-0.508841 -1.330793,-1.213129 v -4.422873 c 0,-0.704854 0.606705,-1.213695 1.330793,-1.213695 z m -19.902224,5.421038 h 3.092364 v 1.428659 h -5.929882 v -1.428659 c 0,-0.430209 0.176214,-0.665256 0.391461,-0.880502 l 2.622271,-3.111878 H 39.461823 V 88.33698 h 5.929597 v 1.428658 c 0,0.430776 -0.176212,0.665821 -0.391178,0.881068 z m 14.03174,-5.421038 h -5.714351 v 4.735985 c 0,0.391742 -0.253995,0.66582 -0.528074,0.66582 h -0.998166 c -0.313113,0 -0.50884,-0.235329 -0.50884,-0.66582 V 88.33698 h -2.504609 v 5.636568 c 0,0.704288 0.62594,1.213129 1.330228,1.213129 h 4.384124 c 0.704288,0 1.330228,-0.508841 1.330228,-1.213129 V 90.45041 c 0,-0.410976 0.274078,-0.665256 0.528641,-0.665256 h 0.998166 c 0.312543,0 0.50884,0.214964 0.50884,0.665256 v 4.735983 h 2.504606 v -5.636001 c 0,-0.704854 -0.626505,-1.213412 -1.330793,-1.213412 z m -19.139384,6.849413 h -1.174097 v -6.849696 h 2.50489 v 5.636568 c 0,0.704288 -0.626223,1.213128 -1.330793,1.213128 z" />
  </g>
</svg>
